<svg xmlns="http://www.w3.org/2000/svg" width="933.333" height="933.333" version="1.0" viewBox="0 0 700 700">
  <path stroke="none" d="M65.7 60.8c-1.6.3-1.7 14-1.7 202.8V466l99.8-.1c56.5 0 102.3-.5 105.7-1 3.3-.5 7.4-1.1 9-1.4 7.4-1.1 19.1-4.7 25.7-7.9 22.1-10.7 35.1-30.3 37.5-56.5.9-10.1.8-77.5-.1-87.6-2.1-23.7-9-37.1-23.7-46.1l-5.9-3.7 2.7-1.7c4.7-2.9 10.9-9.2 14.6-15 3.1-5 9.3-20 8.2-20-.2 0 0-1.1.5-2.4s1.2-5 1.6-8.3c.3-3.2.8-6.7 1-7.8 1-4.6.5-77.4-.5-83.5-6.2-37.8-30.6-57.5-76.1-61.6-7.4-.7-195-1.2-198.3-.6zM225 134.3c6.6 3.2 6.5 2.3 6.7 43.8.2 33.7 0 37.9-1.5 41-3 6-4.8 6.3-33.2 6.4h-25.5l-.1-46c0-25.3 0-46.2.2-46.5.1-.3 11.4-.5 25.1-.4 21 0 25.3.3 28.3 1.7zm.2 166.1c6.5 3.1 6.6 3.5 6.6 45.2 0 50.3 2.7 46.7-35 46.8-13.7.1-24.9-.1-24.9-.4-.3-.9-.6-92.5-.3-93 .1-.3 11.4-.5 25.1-.4 21.5 0 25.3.3 28.5 1.8zm141.3 138c0 202.2 0 202.6 2 202.6 32.5.3 198.5-.2 202-.6 16.3-1.8 35.1-8 45.1-14.8 12-8.1 23.3-24.2 25.8-36.8.3-1.3 1-5 1.7-8.3 2.1-10.5 1.6-95.5-.6-103.5-.2-.8-.6-2.8-.9-4.3-.7-4.1-2.5-9.6-4.8-14.6-2.4-5.5-12.8-15.8-18.6-18.7l-4.2-2.1 4.1-2.8c13.9-9.7 21.9-26.6 24.5-52.5.9-8.1.9-72.5.1-80.1-2-18.5-7.8-31.2-19.6-42.9-10.4-10.3-21.4-15.8-40.6-20.3-8.8-2-11.6-2.1-112.5-2.4l-103.5-.4v202.5zm162.2-127.8c5.6 4.1 5.6 4.7 5.6 44.4 0 40.2-.2 41.3-6.1 44.4-3.9 2-53.7 2.4-54.4.4-.3-1.1-.3-90.8.1-91.5.1-.1 11.8-.1 26 0 24.6.2 26.1.3 28.8 2.3zm-1.1 165c6.6 3.2 6.7 3.6 6.7 44.9 0 32.7-.2 37.4-1.7 40.2-3.2 6.2-5.4 6.7-32.1 6.9-13.2.1-24.7 0-25.5-.2-1.3-.3-1.5-6.4-1.5-46.9V474h25.3c21.4 0 25.9.3 28.8 1.6z"/>
</svg>
