<svg xmlns="http://www.w3.org/2000/svg" width="91" height="75" fill="none" viewBox="0 0 91 75">
  <path fill="#fff" d="M52.76 51a1.28 1.28 0 0 1-.71-.214l-8.046-5.339-4.316 3.038a1.292 1.292 0 0 1-1.168.16 1.25 1.25 0 0 1-.797-.85l-2.166-8.033-7.743-2.896A1.24 1.24 0 0 1 27 35.717a1.24 1.24 0 0 1 .798-1.16l29.44-11.459a1.289 1.289 0 0 1 1.449.325 1.22 1.22 0 0 1 .287 1.065l-4.969 25.505c-.08.41-.365.753-.759.912a1.289 1.289 0 0 1-.485.095Zm-8.05-8.078 7.167 4.755 3.867-19.846-13.965 13.146 2.897 1.922a.68.68 0 0 1 .034.023Zm-5.966-1.058.96 3.557 2.067-1.455-2.707-1.797a1.25 1.25 0 0 1-.32-.305Zm-6.992-6.178 5.316 1.988c.381.142.669.456.773.841l.674 2.5a1.23 1.23 0 0 1 .381-.764l13.307-12.525-20.451 7.96Z"/>
</svg>
