<svg xmlns="http://www.w3.org/2000/svg" width="91" height="75" fill="none" viewBox="0 0 91 75">
  <path fill="#fff" fill-rule="evenodd" d="M43.799 20.01c-.144.025-.71.122-1.258.214-2.706.457-5.908 2.034-8.05 3.962-2.73 2.46-4.374 5.28-5.182 8.888-.212.947-.242 1.362-.242 3.336 0 1.788.04 2.438.192 3.143a17.732 17.732 0 0 0 1.397 4.052l.573 1.166-1.152 4.18c-.633 2.3-1.132 4.2-1.108 4.224.024.024 1.984-.457 4.356-1.069l4.312-1.113.613.31c2.276 1.149 4.587 1.674 7.365 1.673 1.688-.001 3.052-.18 4.422-.578 2.736-.796 4.824-2.015 6.906-4.03 2.506-2.427 4.072-5.242 4.806-8.64.31-1.44.338-4.864.051-6.29-.429-2.128-1.363-4.371-2.607-6.26-.88-1.337-3.136-3.6-4.472-4.486-1.733-1.15-3.73-1.979-5.862-2.433-.755-.161-1.519-.229-2.91-.258-1.039-.021-2.006-.018-2.15.008Zm4.387 2.916c5.024 1.103 8.916 4.614 10.486 9.46.486 1.498.593 2.246.59 4.128-.001 2.338-.333 3.868-1.262 5.825-1.225 2.583-3.725 5.125-6.33 6.44-3.15 1.588-7.307 1.851-10.622.673-.419-.15-1.266-.534-1.882-.856l-1.12-.584-2.535.653c-1.394.36-2.552.637-2.572.616-.022-.021.242-1.097.586-2.392.343-1.294.625-2.428.626-2.52 0-.092-.233-.557-.52-1.034a13.51 13.51 0 0 1-.85-1.72c-2.058-5.324-.869-10.975 3.142-14.936 2.212-2.185 4.795-3.451 8.033-3.94.674-.1 3.482.023 4.23.187Zm-9.06 5.974c-.746.334-1.727 1.876-1.943 3.053-.328 1.79.636 4.05 2.868 6.723 1.683 2.015 3.399 3.392 5.478 4.394 2.316 1.116 2.725 1.236 4.246 1.247 1.294.009 1.32.004 2.028-.353 1.364-.689 1.796-1.233 2.065-2.603.185-.94.107-1.023-1.908-2.02-2.18-1.08-2.258-1.084-2.99-.127-.73.954-1.172 1.39-1.41 1.39-.337 0-2.308-1.02-3.048-1.577-1.138-.857-3.125-3.266-3.125-3.788 0-.105.234-.448.52-.764.571-.63.843-1.087.843-1.415 0-.237-1.296-3.477-1.541-3.85-.181-.276-.29-.314-1.132-.394-.424-.04-.734-.013-.95.084Z" clip-rule="evenodd"/>
</svg>
