<svg xmlns="http://www.w3.org/2000/svg" width="216" height="159" fill="none" viewBox="0 0 216 159">
  <path fill="#403F41" d="m49.084 46.882 12.487 23.825 5.454 24.255-3.014 12.056-7.894.861-2.44-1.005-3.014 41.622 10.764 4.592H216V46.882H49.084Zm-18.944 88.84 6.027-13.491h-15.93L2.008 111.18l.43 39.038L0 157.394l16.936-.144-1.292-7.032 3.444-14.066 11.052-.43ZM3.014 101.421l8.898 2.009 4.162-4.88-.287-5.597-3.157-12.63 7.176-12.917-.718-10.477L45.64 43.438l-.144-.43-.86-6.172 1.004-9.616h4.449l4.736-6.746c.287-.43.287-.86-.143-1.291l-4.736-4.88-.718-9.185a.309.309 0 0 0-.287-.288l-1.148-.717c-.144-.144-.287-.144-.43 0l-2.44 1.292-12.774-.575L26.982.238c-.287-.287-.574-.287-.861-.144l-2.296 1.148-.431.431-4.45 14.926-2.439 18.228-10.19 13.06-5.167 17.222-.143 20.524 3.588 8.18-1.58 7.608Z"/>
  <path fill="#403F41" d="m59.561 71.568-13.06-25.547v-.43L21.528 58.22l.718 9.76-7.176 12.63 3.014 12.055.287 6.745-5.598 6.459-10.046-2.153-.43 5.023 18.657 11.195h16.362l14.065-16.074v-.718L50.52 85.92l6.314 11.339-3.3 6.458 4.162 1.722 4.88-.43 2.152-9.042-5.167-24.399Z"/>
  <path fill="#403F41" d="m51.524 107.018-12.63 14.783-6.171 13.778-1.292 20.38 19.52 2.727 7.893-4.019-10.477-4.736 3.157-42.913Z"/>
  <path fill="#F6CA2A" d="M78.506 140.746v-7.894h3.875v7.894h-.86v-7.176h-2.154v7.176h-.86Zm5.454 0v-7.894h2.44c.43 0 .861.144 1.148.287.287.144.43.574.43 1.005v1.435c0 .287 0 .574-.143.861a1.974 1.974 0 0 1-.43.574c-.287.144-.575.287-1.005.287h-1.435v3.445H83.96Zm.861-3.875h1.148c.287 0 .575-.144.862-.287.143-.287.287-.574.287-1.005v-1.005c0-.43-.144-.717-.287-.861-.144-.143-.431-.287-.575-.287h-1.435v3.445Zm6.172 4.018c-.43 0-.718 0-1.005-.144-.287-.143-.574-.287-.718-.574a2.864 2.864 0 0 1-.287-1.292v-4.449c0-.43.144-.861.287-1.148a.789.789 0 0 1 .718-.43c.287-.144.574-.144 1.005-.144.43 0 .717 0 1.004.144.287.143.574.287.718.574.143.287.287.574.287 1.148v4.449c0 .574-.144 1.005-.287 1.292-.144.287-.43.43-.718.574h-1.004Zm0-.431c.287 0 .43 0 .574-.143.143 0 .287-.144.43-.287.144-.144.144-.431.144-.718v-4.593c0-.287 0-.574-.144-.717-.143-.144-.287-.287-.43-.287-.144 0-.43-.144-.574-.144-.287 0-.43 0-.574.144-.144 0-.287.143-.431.287-.144.143-.144.43-.144.717v4.593c0 .287 0 .574.144.718.144.143.287.287.43.287.144 0 .288.143.575.143Zm3.587.288v-7.894h1.005l1.723 6.459 1.722-6.459h1.004v7.894h-.717v-6.315l-1.579 6.315h-.574l-1.579-6.315v6.315h-1.004Zm7.033 0v-7.894h.861v2.009h1.292c.431 0 .718 0 .861.144.287.143.431.287.574.574.144.287.144.574.144 1.005v2.152c0 .431 0 .718-.144.862 0 .287-.143.43-.287.574-.143.143-.287.287-.574.287-.143 0-.431.143-.718.143h-2.009v.144Zm.718-.431h1.148c.287 0 .431 0 .574-.143.144-.144.287-.287.287-.574 0-.288.144-.575.144-.862v-2.583c0-.143-.144-.431-.287-.431-.144-.143-.431-.143-.718-.143h-1.005v4.736h-.143Zm3.875.431v-7.894h.861v7.894h-.861Zm2.296 0v-7.894h.861v7.32h2.153v-7.32h.861v7.32h2.153v-7.32h.861v7.894h-6.889Zm7.75 0v-.431c.144 0 .287-.143.431-.287.144-.143.144-.43.144-.717l.43-6.459h3.732v7.894h-.718v-7.176h-2.153l-.43 6.028v.43c0 .144 0 .287-.144.431a.309.309 0 0 1-.287.287c-.143 0-.287.143-.574.143h-.431v-.143Zm6.315 0v-7.894h3.445v.574h-2.584v2.871h2.01v.717h-2.01v3.158h2.584v.574h-3.445Zm4.45 0v-7.894h.861v3.445h2.296v-3.445h.861v7.894h-.861v-3.732h-2.296v3.732h-.861Zm5.74 0v-7.894h.862v3.445h2.296v-3.445h.861v7.894h-.861v-3.732h-2.296v3.732h-.862Zm5.598 0v-7.894h.861v2.009h1.292c.43 0 .717 0 .861.144.287.143.43.287.574.574.143.287.143.574.143 1.005v2.152c0 .431 0 .718-.143.862 0 .287-.144.43-.287.574-.144.143-.287.287-.574.287-.144 0-.431.143-.718.143h-2.009v.144Zm.861-.431h1.148c.287 0 .431 0 .574-.143.144-.144.287-.287.287-.574 0-.288.144-.575.144-.862v-2.583c0-.143-.144-.431-.287-.431-.144-.143-.431-.143-.718-.143h-1.005v4.736h-.143Zm3.731.431v-7.894h.862v7.894h-.862Zm2.297-.001v-7.893h.717v6.171l2.44-6.171h.718v7.893h-.718v-5.884l-2.44 5.884h-.717Zm1.866-8.324c-.287 0-.575 0-.718-.143l-.431-.431c-.143-.143-.143-.287-.143-.574h.43c0 .287.144.431.287.574.144.144.288.144.575.144s.43 0 .574-.144c.143-.143.287-.287.287-.574h.43c0 .143 0 .287-.143.574l-.431.431c-.143 0-.287.143-.717.143Zm5.597 8.325 1.722-7.894h1.005l1.722 7.894h-.861l-.431-1.866h-1.866l-.43 1.866h-.861Zm1.291-2.297h1.866l-.861-4.592-1.005 4.592Zm3.589 2.297v-.431c.143 0 .287-.143.43-.287.144-.143.144-.43.144-.717l.43-6.459h3.732v7.894h-.861v-7.176h-2.153l-.431 6.028v.43c0 .144 0 .287-.143.431 0 .143-.144.287-.287.287-.144.143-.287.143-.574.143h-.287v-.143Zm6.315 0v-7.894h.861v2.009h1.291c.431 0 .718 0 .862.144.287.143.43.287.574.574.143.287.143.574.143 1.005v2.152c0 .431 0 .718-.143.862 0 .287-.144.43-.287.574-.144.143-.287.287-.574.287-.144 0-.431.143-.718.143h-2.009v.144Zm.717-.431h1.148c.287 0 .431 0 .574-.143.144-.144.288-.287.288-.574 0-.288.143-.575.143-.862v-2.583c0-.143-.143-.431-.287-.431-.143-.143-.431-.143-.718-.143h-1.004v4.736h-.144Zm4.306.431v-7.894h3.875v7.894h-.861v-7.176h-2.153v7.176h-.861Zm5.597 0v-7.894h.718v6.171l2.44-6.171h.717v7.894h-.717v-5.885l-2.44 5.885h-.718Zm5.598 0v-7.894h.861v3.445h2.296v-3.445h.861v7.894h-.861v-3.732h-2.296v3.732h-.861Zm5.597 0v-7.894h.717v6.171l2.44-6.171h.718v7.894h-.718v-5.885l-2.44 5.885h-.717Zm7.319.143c-.43 0-.861-.144-1.148-.287a1.73 1.73 0 0 1-.717-.718c-.144-.287-.144-.574-.144-1.005v-.861h.861v.718c0 .431.144.861.287 1.005.144.287.431.43.861.43.431 0 .718-.143.862-.43.287-.287.287-.574.287-1.005v-.718c0-.43-.144-.717-.431-.861-.287-.143-.574-.287-1.005-.287h-.717v-.574h.717c.144 0 .431 0 .575-.143.143-.144.287-.144.43-.287.144-.144.144-.288.287-.431v-.861c0-.287-.143-.574-.287-.861-.143-.287-.43-.287-.861-.287s-.718.143-.861.43c-.144.287-.287.574-.287 1.005v.43h-.861v-.574c0-.574.143-1.004.43-1.291.287-.287.861-.431 1.579-.431s1.292.144 1.579.431c.287.287.43.717.43 1.291v.431c0 .431-.143.861-.287 1.148-.287.287-.574.431-.861.574.431 0 .718.287 1.005.574.287.287.287.718.287 1.148v.575c0 .43 0 .717-.144 1.004-.143.287-.287.574-.717.718-.287-.144-.718 0-1.149 0Zm3.301-.143v-7.894h1.005l1.722 6.459 1.723-6.459h1.004v7.894h-.717v-6.315l-1.579 6.315h-.574l-1.579-6.315v6.315h-1.005Z"/>
  <path fill="#EFEFEF" d="M74.918 59.225h12.917c4.306 0 6.459 1.866 6.459 5.454v3.588c0 2.583-.718 4.162-2.153 5.023.86.287 1.435.861 1.722 1.579.287.718.43 1.722.43 2.87v4.162c0 3.589-2.152 5.454-6.458 5.454H74.918v-28.13Zm11.912 10.62v-4.592c0-.718-.43-1.005-1.148-1.005h-3.157v6.459h3.157c.718 0 1.148-.287 1.148-.861Zm0 11.626v-4.736c0-.718-.43-1.005-1.148-1.005h-3.157v6.602h3.157c.718 0 1.148-.287 1.148-.861Zm18.515-4.019V87.5h-7.75V59.225h13.06c4.306 0 6.459 1.866 6.459 5.454v7.32c0 2.727-1.292 4.449-3.732 5.166l5.167 10.334h-8.324l-4.45-10.047h-.43Zm3.157-12.773h-3.014v7.463h3.014c.718 0 1.149-.287 1.149-1.005V65.54c-.144-.574-.431-.861-1.149-.861Zm18.227-5.454h6.459c4.306 0 6.458 1.866 6.458 5.454v17.366c0 3.588-2.152 5.454-6.458 5.454h-6.459c-4.305 0-6.458-1.866-6.458-5.454V64.68c0-3.732 2.153-5.454 6.458-5.454Zm5.311 21.815V65.684c0-.575-.431-1.005-1.148-1.005h-1.866c-.718 0-1.148.287-1.148 1.005V81.04c0 .718.43 1.005 1.148 1.005h1.866c.717-.144 1.148-.43 1.148-1.005Zm38.033-21.815h7.607L171.652 87.5h-8.899l-3.157-16.936-3.158 16.936h-8.898l-6.028-28.274h8.037l2.44 19.089 3.732-19.089h7.607l3.731 19.089 3.014-19.089Zm22.82 0h7.032V87.5h-6.602l-6.314-14.783V87.5h-7.033V59.225h6.602l6.315 15.07v-15.07Zm-78.65 35.737h12.917c4.306 0 6.459 1.866 6.459 5.454v3.588c0 2.583-.718 4.162-2.153 5.023.861.287 1.435.861 1.722 1.579.287.717.431 1.722.431 2.87v4.162c0 3.588-2.153 5.454-6.459 5.454h-12.917v-28.13Zm11.912 10.621v-4.45c0-.717-.43-1.004-1.148-1.004h-3.157v6.458h3.157c.718 0 1.148-.287 1.148-1.004Zm0 11.768v-4.736c0-.718-.43-1.005-1.148-1.005h-3.157v6.602h3.157c.718 0 1.148-.287 1.148-.861Zm18.658.431h9.616v5.454h-17.366V94.962h16.936v5.454h-9.186v5.741h8.037v5.453h-8.037v6.172Zm26.408 5.597-.861-4.162h-6.745l-.861 4.162h-7.607l7.319-28.273h9.329l7.32 28.273h-7.894Zm-6.458-9.759h4.449l-2.153-10.19-2.296 10.19Zm23.681-.287v10.046h-7.75V95.106h13.06c4.306 0 6.459 1.865 6.459 5.453v7.32c0 2.727-1.292 4.449-3.732 5.167l5.167 10.333h-8.181l-4.449-10.046h-.574Zm3.014-12.774h-3.014v7.463h3.014c.717 0 1.148-.287 1.148-1.004v-5.598c0-.574-.287-.861-1.148-.861Z"/>
  <path fill="#F6CA2A" d="M213.55 153.204h2.44V46.998h-2.44v106.206Z"/>
</svg>
