<svg xmlns="http://www.w3.org/2000/svg" width="91" height="75" fill="none" viewBox="0 0 91 75">
  <path fill="#fff" stroke="#fff" stroke-width=".3" d="m44.32 37.05-12.452-9.63h26.608l-12.452 9.63v.001c-.2.157-.518.262-.851.26h-.002c-.333.002-.651-.103-.85-.26h-.001Zm7.64.865 6.803 8.666H31.58l6.803-8.666a.798.798 0 0 0-.114-1.1.752.752 0 0 0-1.079.116l-6.638 8.457v-17.02l12.845 9.935c.523.402 1.155.576 1.773.577h.001c.618 0 1.25-.175 1.773-.576l12.846-9.936v17.02l-6.638-8.457a.753.753 0 0 0-1.08-.116.798.798 0 0 0-.113 1.1Zm7.57-12.065H30.814c-.99 0-1.791.833-1.791 1.842v18.616c0 1.009.801 1.842 1.791 1.842h28.718c.99 0 1.791-.833 1.791-1.842V27.692c0-1.009-.801-1.842-1.791-1.842Z"/>
</svg>
