<svg xmlns="http://www.w3.org/2000/svg" width="186" height="138" fill="none" viewBox="0 0 186 138">
  <path fill="#fff" d="M42.267 41.33 53.02 61.847l4.697 20.887-2.596 10.381-6.797.742-2.101-.865-2.596 35.84 9.27 3.955H186V41.331H42.267Zm-16.314 76.502 5.191-11.617H17.426L1.73 96.698l.371 33.616L0 136.494l14.583-.124-1.112-6.056 2.966-12.111 9.516-.371ZM2.595 88.294l7.663 1.73 3.584-4.201-.247-4.82-2.72-10.876 6.18-11.123-.618-9.022 22.864-11.617-.124-.371-.741-5.314.865-8.28h3.831l4.079-5.81c.247-.37.247-.74-.124-1.112l-4.078-4.202-.618-7.91a.266.266 0 0 0-.247-.246l-.99-.618c-.123-.124-.246-.124-.37 0l-2.101 1.112-11-.494-4.448-3.955c-.248-.247-.495-.247-.742-.124l-1.977.989-.371.37-3.831 12.854-2.101 15.695-8.775 11.247-4.45 14.83L.866 74.7l3.09 7.044-1.36 6.55Z"/>
  <path fill="#fff" d="M51.289 62.588 40.042 40.589v-.37L18.538 51.093l.618 8.404-6.18 10.876 2.596 10.381.247 5.809L11 92.126l-8.65-1.854-.372 4.325 16.067 9.64h14.089l12.111-13.842v-.618l-.741-14.83 5.438 9.763-2.843 5.562 3.584 1.483 4.202-.371 1.854-7.786-4.449-21.01Z"/>
  <path fill="#fff" d="m44.368 93.114-10.876 12.73-5.314 11.864-1.112 17.55 16.808 2.348 6.797-3.461-9.022-4.078 2.72-36.953Z"/>
  <path fill="#333" d="M67.603 122.157v-6.797h3.337v6.797h-.742v-6.179h-1.854v6.179h-.741Zm4.696 0v-6.797H74.4c.37 0 .741.124.989.247.247.124.37.495.37.865v1.236c0 .247 0 .495-.123.742a1.698 1.698 0 0 1-.37.494c-.248.124-.495.247-.866.247h-1.236v2.966H72.3Zm.741-3.336h.99c.246 0 .494-.124.74-.248.124-.247.248-.494.248-.865v-.865c0-.371-.124-.618-.247-.741-.124-.124-.371-.248-.495-.248H73.04v2.967Zm5.315 3.46c-.371 0-.618 0-.865-.123-.247-.124-.495-.248-.618-.495a2.467 2.467 0 0 1-.247-1.112v-3.831c0-.371.123-.742.247-.989a.68.68 0 0 1 .618-.371c.247-.123.494-.123.865-.123.37 0 .618 0 .865.123.247.124.494.247.618.495.123.247.247.494.247.988v3.831c0 .495-.124.866-.247 1.113-.124.247-.37.371-.618.494h-.865Zm0-.371c.247 0 .37 0 .494-.123.124 0 .247-.124.37-.247.125-.124.125-.371.125-.618v-3.955c0-.247 0-.495-.124-.618-.124-.124-.247-.247-.37-.247-.124 0-.372-.124-.495-.124-.247 0-.371 0-.495.124-.123 0-.247.123-.37.247-.124.123-.124.371-.124.618v3.955c0 .247 0 .494.124.618.123.123.247.247.37.247.124 0 .248.123.495.123Zm3.089.247v-6.797h.865l1.484 5.562 1.483-5.562h.865v6.797h-.618v-5.437l-1.36 5.437h-.494l-1.36-5.437v5.437h-.865Zm6.056 0v-6.797h.742v1.73h1.112c.37 0 .618 0 .742.124.247.124.37.247.494.494.123.247.123.495.123.865v1.854c0 .371 0 .618-.123.742 0 .247-.124.371-.247.494-.124.124-.247.247-.495.247-.123 0-.37.124-.617.124H87.5v.123Zm.618-.37h.989c.247 0 .37 0 .494-.124.124-.123.247-.247.247-.494s.124-.495.124-.742v-2.224c0-.124-.124-.371-.247-.371-.124-.124-.371-.124-.618-.124h-.865v4.079h-.124Zm3.337.37v-6.797h.742v6.797h-.742Zm1.978 0v-6.797h.741v6.303h1.854v-6.303h.741v6.303h1.854v-6.303h.742v6.797h-5.932Zm6.673 0v-.37c.124 0 .247-.124.371-.247.124-.124.124-.371.124-.618l.37-5.562h3.214v6.797h-.618v-6.179h-1.854l-.371 5.191v.371c0 .123 0 .247-.123.37 0 .124-.124.247-.248.247-.123 0-.247.124-.494.124h-.371v-.124Zm5.438 0v-6.797h2.966v.494h-2.224v2.472h1.73v.618h-1.73v2.719h2.224v.494h-2.966Zm3.831 0v-6.797h.742v2.966h1.977v-2.966h.742v6.797h-.742v-3.213h-1.977v3.213h-.742Zm4.944 0v-6.797h.741v2.966h1.978v-2.966h.741v6.797h-.741v-3.213h-1.978v3.213h-.741Zm4.82 0v-6.797h.741v1.73h1.113c.37 0 .618 0 .741.124a.964.964 0 0 1 .494.494c.124.247.124.495.124.865v1.854c0 .371 0 .618-.124.742 0 .247-.123.371-.247.494-.123.124-.247.247-.494.247-.124 0-.371.124-.618.124h-1.73v.123Zm.741-.37h.989c.247 0 .371 0 .494-.124.124-.123.247-.247.247-.494s.124-.495.124-.742v-2.224c0-.124-.124-.371-.247-.371-.124-.124-.371-.124-.618-.124h-.865v4.079h-.124Zm3.214.37v-6.797h.741v6.797h-.741Zm1.977.001v-6.798h.618v5.314l2.101-5.314h.618v6.798h-.618v-5.068l-2.101 5.068h-.618Zm1.607-7.169c-.247 0-.495 0-.618-.123l-.371-.371c-.124-.124-.124-.247-.124-.494h.371c0 .247.124.37.247.494.124.124.248.124.495.124s.37 0 .494-.124.247-.247.247-.494h.371c0 .123 0 .247-.124.494l-.37.371c-.124 0-.248.123-.618.123Zm4.82 7.168 1.483-6.797h.865l1.483 6.797h-.742l-.371-1.606h-1.606l-.371 1.606h-.741Zm1.112-1.977h1.606l-.741-3.955-.865 3.955Zm3.09 1.977v-.37c.123 0 .247-.124.37-.247.124-.124.124-.371.124-.618l.371-5.562h3.213v6.797h-.742v-6.179h-1.853l-.371 5.191v.371c0 .123 0 .247-.124.37a.265.265 0 0 1-.247.247c-.123.124-.247.124-.494.124h-.247v-.124Zm5.437 0v-6.797h.742v1.73h1.112c.371 0 .618 0 .742.124a.964.964 0 0 1 .494.494c.124.247.124.495.124.865v1.854c0 .371 0 .618-.124.742 0 .247-.123.371-.247.494-.124.124-.247.247-.494.247-.124 0-.371.124-.618.124h-1.731v.123Zm.618-.37h.989c.247 0 .371 0 .494-.124.124-.123.248-.247.248-.494s.123-.495.123-.742v-2.224c0-.124-.123-.371-.247-.371-.123-.124-.371-.124-.618-.124h-.865v4.079h-.124Zm3.708.37v-6.797h3.337v6.797h-.742v-6.179h-1.853v6.179h-.742Zm4.82 0v-6.797h.618v5.314l2.101-5.314h.618v6.797h-.618v-5.067l-2.101 5.067h-.618Zm4.82 0v-6.797h.741v2.966h1.978v-2.966h.741v6.797h-.741v-3.213h-1.978v3.213h-.741Zm4.82 0v-6.797h.618v5.314l2.101-5.314h.618v6.797h-.618v-5.067l-2.101 5.067h-.618Zm6.303.124c-.371 0-.742-.124-.989-.247a1.496 1.496 0 0 1-.618-.618c-.123-.247-.123-.495-.123-.865v-.742h.741v.618c0 .371.124.742.247.865.124.247.371.371.742.371s.618-.124.741-.371c.248-.247.248-.494.248-.865v-.618c0-.371-.124-.618-.371-.741-.247-.124-.495-.248-.865-.248h-.618v-.494h.618c.123 0 .37 0 .494-.123.124-.124.247-.124.371-.248.123-.123.123-.247.247-.37v-.742c0-.247-.124-.494-.247-.741-.124-.248-.371-.248-.742-.248-.37 0-.618.124-.741.371-.124.247-.247.495-.247.865v.371h-.742v-.494c0-.495.124-.865.371-1.113.247-.247.741-.37 1.359-.37s1.113.123 1.36.37c.247.248.371.618.371 1.113v.37c0 .371-.124.742-.248.989-.247.247-.494.371-.741.494.371 0 .618.248.865.495s.247.618.247.989v.494c0 .371 0 .618-.123.865-.124.247-.248.494-.618.618-.248-.124-.618 0-.989 0Zm2.842-.124v-6.797h.865l1.484 5.562 1.483-5.562h.865v6.797h-.618v-5.437l-1.36 5.437h-.494l-1.36-5.437v5.437h-.865ZM64.513 51.96h11.123c3.707 0 5.561 1.606 5.561 4.696v3.09c0 2.224-.618 3.584-1.854 4.325.742.247 1.236.742 1.483 1.36.248.618.371 1.483.371 2.471v3.584c0 3.09-1.854 4.697-5.561 4.697H64.513V51.959Zm10.258 9.145V57.15c0-.618-.371-.865-.989-.865h-2.719v5.562h2.719c.618 0 .989-.248.989-.742Zm0 10.01v-4.078c0-.618-.371-.865-.989-.865h-2.719v5.685h2.719c.618 0 .989-.247.989-.741Zm15.942-3.46v8.651H84.04V51.96h11.246c3.708 0 5.562 1.606 5.562 4.696v6.303c0 2.348-1.112 3.831-3.213 4.449l4.449 8.898h-7.169l-3.83-8.65h-.371Zm2.72-11h-2.596v6.427h2.596c.617 0 .988-.247.988-.865v-4.82c-.123-.494-.37-.741-.989-.741Zm15.695-4.695h5.562c3.707 0 5.561 1.606 5.561 4.696V71.61c0 3.09-1.854 4.696-5.561 4.696h-5.562c-3.708 0-5.561-1.606-5.561-4.696V56.656c0-3.213 1.853-4.697 5.561-4.697Zm4.573 18.785V57.52c0-.494-.371-.865-.989-.865h-1.607c-.617 0-.988.247-.988.865v13.224c0 .618.371.865.988.865h1.607c.618-.124.989-.37.989-.865Zm32.751-18.785h6.55l-5.191 24.346h-7.662l-2.719-14.583-2.719 14.583h-7.663l-5.19-24.346h6.921l2.101 16.437 3.213-16.438h6.55l3.213 16.438 2.596-16.438Zm19.65 0h6.056v24.346h-5.685l-5.438-12.73v12.73h-6.056V51.96h5.685l5.438 12.976V51.96ZM98.376 82.733h11.123c3.708 0 5.561 1.606 5.561 4.696v3.09c0 2.224-.618 3.584-1.853 4.325.741.248 1.235.742 1.483 1.36.247.618.37 1.483.37 2.472v3.584c0 3.09-1.853 4.696-5.561 4.696H98.376V82.733Zm10.258 9.145v-3.83c0-.619-.371-.866-.989-.866h-2.719v5.561h2.719c.618 0 .989-.247.989-.865Zm0 10.135v-4.079c0-.618-.371-.865-.989-.865h-2.719v5.685h2.719c.618 0 .989-.247.989-.741Zm16.066.37h8.281v4.697h-14.954V82.733h14.583v4.696h-7.91v4.944h6.921v4.696H124.7v5.314Zm22.74 4.82-.741-3.584h-5.809l-.741 3.584h-6.55l6.303-24.347h8.033l6.303 24.347h-6.798Zm-5.561-8.404h3.831l-1.854-8.774-1.977 8.774Zm20.392-.247v8.651h-6.674V82.856h11.247c3.707 0 5.561 1.607 5.561 4.697v6.303c0 2.348-1.112 3.831-3.213 4.449l4.449 8.898h-7.045l-3.831-8.65h-.494Zm2.595-11h-2.595v6.427h2.595c.618 0 .989-.247.989-.865v-4.82c0-.494-.247-.741-.989-.741Z"/>
  <path fill="#FFB800" d="M183.89 132.885h2.101V41.43h-2.101v91.455Z"/>
</svg>
