<svg xmlns="http://www.w3.org/2000/svg" width="31" height="40" fill="none" viewBox="0 0 31 40">
  <path fill="#3C3C3C" d="m28.176 26.729.206.069.207-.035 1.137-.137.585-.07.138-.585.517-2.135.034-.207-.034-.207-1.206-5.752-.034-.103-.07-.104-3.065-5.993-.172-.551-.172-1.309.137-1.378h.724l.275-.379 1.103-1.584c.31-.413.24-1.033-.104-1.412l-.895-.93-.138-1.86c-.035-.31-.207-.62-.482-.758l-.276-.172a.79.79 0 0 0-.482-.138.954.954 0 0 0-.448.103l-.379.207-2.48-.138-.964-.895a1.094 1.094 0 0 0-.69-.276L0 .034v39.474l27.073-.035-.034-.034.241-.103 1.894-.965 1.62-.827-1.654-.723-1.929-.861.689-9.3.276.069Z"/>
  <path fill="#fff" d="M1.516 1.619h7.887c2.618 0 3.962 1.102 3.962 3.341v2.205c0 1.55-.414 2.583-1.275 3.03.517.207.827.552 1.034.965.172.448.275 1.034.275 1.791v2.584c0 2.204-1.309 3.34-3.961 3.34H1.55V1.62h-.034ZM8.749 8.06V5.27c0-.379-.207-.585-.654-.585h-1.93v3.96h1.93c.413.035.654-.172.654-.585Zm0 7.096V12.33c0-.379-.207-.585-.654-.585h-1.93v3.995h1.93c.413 0 .654-.172.654-.585Zm-7.233 5.442h7.887c2.618 0 3.962 1.102 3.962 3.34v2.205c0 1.55-.414 2.584-1.275 3.031.517.207.827.552 1.034.965.172.448.275 1.033.275 1.791v2.583c0 2.205-1.309 3.342-3.961 3.342H1.55V20.598h-.034Zm7.233 6.475v-2.79c0-.379-.207-.585-.654-.585h-1.93v3.961h1.93c.413 0 .654-.172.654-.586Zm0 7.096v-2.824c0-.38-.207-.586-.654-.586h-1.93v3.995h1.93c.413 0 .654-.206.654-.585Z"/>
  <path fill="#F6CA2A" d="m22.01 33.067 1.412-3.17h-3.754l-4.34-2.617.103 9.231-.585 1.688 3.995-.035-.275-1.618.792-3.376 2.652-.103Zm-6.44-8.095 2.1.482 1-1.136-.07-1.344-.723-2.996 1.688-3.031-.173-2.48 6.27-3.204-.035-.103-.172-1.481.24-2.273h1.069l1.102-1.585c.069-.103.069-.207-.035-.31L26.73 4.34l-.172-2.17c0-.034-.035-.069-.035-.069l-.275-.138c-.035-.034-.069-.034-.103 0l-.586.345-3.031-.138-1.206-1.102c-.069-.07-.138-.07-.206-.035l-.551.276-.104.103-1.068 3.514-.585 4.305-2.411 3.1-1.24 4.065-.035 4.856.827 1.93-.379 1.79Z"/>
  <path fill="#F6CA2A" d="m28.968 17.946-3.1-6.063-.034-.068-5.856 2.962.138 2.273-1.688 3.031.723 2.825.07 1.584-1.344 1.55-2.342-.517-.138 1.172 4.409 2.652 3.892.034 3.307-3.823v-.172l-.207-4.1 1.516 2.722-.793 1.515 1 .414 1.136-.104.517-2.17-1.206-5.717Z"/>
  <path fill="#F6CA2A" d="m27.04 26.316-2.998 3.478-1.446 3.273-.276 4.822 4.581.62 1.895-.93-2.48-1.102.723-10.161Z"/>
</svg>
