<svg xmlns="http://www.w3.org/2000/svg" xmlns:xlink="http://www.w3.org/1999/xlink" width="343" height="195" fill="none" viewBox="0 0 343 195">
  <defs>
    <path id="b" fill="#fff" d="M0 0h342.004v195H0z"/>
  </defs>
  <g clip-path="url(#a)">
    <use xlink:href="#b" transform="translate(.996)"/>
    <path fill="url(#c)" d="M50.81 74.13c.46-.915.898-1.88 1.339-2.853.325-.717.652-1.439.991-2.147-.666-.98-1.333-1.95-2-2.91-2.88-3.93-5.9-7.72-9.14-11.31a38.906 38.906 0 0 0-4.34-.26 37.015 37.015 0 0 0-4 .22 131.435 131.435 0 0 1 17.15 19.26Z"/>
    <path fill="url(#d)" d="M20.83 58.76a36.372 36.372 0 0 1 10.83-3.61c3.82 4.03 7.45 8.27 10.87 12.68 2.34 3.04 4.62 6.18 6.77 9.41-1.09 2.18-2.21 4.36-3.38 6.52a95.442 95.442 0 0 0-25.09-25Z"/>
    <path fill="url(#e)" d="M56.24 114.53c.74 2.38 1.42 4.78 2 7.22a36.757 36.757 0 0 1-10.91 4.99 145.391 145.391 0 0 0 8.91-12.21Z"/>
    <path fill="url(#f)" d="M67.6 70.6c.07 0 .14-.042.21-.085l.017-.01.019-.011.011-.007.013-.007A36.998 36.998 0 0 0 63 64.81a7.07 7.07 0 0 0-3.11 2.79c-.63 1.06-1.38 2.65-2.13 4.29 1.24 1.87 2.42 3.78 3.52 5.72 1.46-2.97 3.28-5.69 6.32-7.01Z"/>
    <path fill="url(#g)" d="M56.22 88.79c-1.1 2.28-2.243 4.54-3.43 6.78-1.11-2.32-2.34-4.57-3.66-6.83 1.23-2.05 2.42-4.13 3.54-6.24 1.25 2.07 2.43 4.16 3.55 6.29Z"/>
    <path fill="url(#h)" d="M52 105.08a124.772 124.772 0 0 1-18.52 22.71 35.85 35.85 0 0 0 10.65-.33 145.81 145.81 0 0 0 11.09-16.17c-.82-2.39-1.73-4.73-2.71-7.05-.057.093-.112.187-.168.28-.11.187-.222.373-.342.56Z"/>
    <path fill="url(#i)" d="M54.25 66.86a129.993 129.993 0 0 0-9.78-11.58 36.482 36.482 0 0 1 14.42 6.12c-.39.26-.78.53-1.15.83a16.274 16.274 0 0 0-3.49 4.63Z"/>
    <path fill="url(#j)" d="m57.86 85.32.37-.78c.545-1.08 1.046-2.27 1.56-3.488l.27-.642c-1.08-2-2.22-4-3.42-5.94l-.34.75c-.26.578-.502 1.116-.72 1.58-.35.727-.716 1.439-1.083 2.155l-.187.365a93.856 93.856 0 0 1 3.55 6Z"/>
    <path fill="url(#k)" d="M30.71 127.35A36.204 36.204 0 0 1 19.17 123c10.25-7.43 18.64-17.2 25.76-27.63.371-.55.73-1.109 1.09-1.668h.002c.221-.345.443-.69.668-1.032 1.38 2.31 2.63 4.69 3.8 7.11a141.652 141.652 0 0 1-19.78 27.57Z"/>
    <path fill="url(#l)" d="M24.45 66.07a110.918 110.918 0 0 1 19.18 21.8c-7.12 12.51-15.63 24.29-26.22 34.05A36.677 36.677 0 0 1 .996 91.198 36.68 36.68 0 0 1 17.66 60.61c2.31 1.69 4.62 3.53 6.79 5.46Z"/>
    <path fill="url(#m)" d="M62.58 103.89c-1.31 2.44-2.7 4.83-4.15 7.19a75.949 75.949 0 0 1 1.74 9.26 37.438 37.438 0 0 0 5.14-4.85 74.933 74.933 0 0 0-2.73-11.6Z"/>
    <path fill="url(#n)" d="M54.91 100.36c1.3-2.19 2.52-4.43 3.7-6.69.98 2.14 1.88 4.33 2.7 6.5-1.24 2.45-2.53 4.89-3.88 7.3a78.323 78.323 0 0 0-2.52-7.11Z"/>
    <path fill="url(#o)" d="M71.49 85.31a68.245 68.245 0 0 0-3.4 7.33 68.646 68.646 0 0 1 3.1 13.68 36.507 36.507 0 0 0 3.2-15 37.115 37.115 0 0 0-.94-8.22 7.41 7.41 0 0 0-1.96 2.21Z"/>
    <path fill="url(#p)" d="M62.6 85.46c.98 2.1 1.88 4.22 2.71 6.38l-.092.204-.073.16a16.77 16.77 0 0 1-.625 1.296c-.48 1.06-.98 2.15-1.48 3.15a79.58 79.58 0 0 0-2.69-6.39c.64-1.3 1.27-2.6 1.87-3.92l.38-.88Z"/>
    <path fill="url(#q)" d="M72.7 80.33a36.535 36.535 0 0 0-2.7-6.46A7.71 7.71 0 0 0 66.43 77a49.546 49.546 0 0 0-2.56 5.46c1 2 1.94 4.13 2.78 6.24 1.4-3.31 3.04-6.62 6.05-8.37Z"/>
    <path fill="url(#r)" d="M66.68 95.75a75.839 75.839 0 0 1 3.12 13.36 35.79 35.79 0 0 1-2.8 4.29 65.677 65.677 0 0 0-2.66-12.88 138.26 138.26 0 0 0 2.34-4.77Z"/>
    <path fill="#000" fill-rule="evenodd" d="M301.3 89.8h4.56v8.76h3.289c.207-2.785 1.062-4.948 2.571-6.5a10.25 10.25 0 0 1 13.84 0c1.77 1.8 2.65 4.42 2.65 7.88v1.34c0 3.453-.883 6.08-2.65 7.88a10.251 10.251 0 0 1-13.84 0c-1.623-1.673-2.492-4.059-2.607-7.16h-3.253v9.46h-4.56V89.8Zm13.74 16.91a4.28 4.28 0 0 0 3.59 1.65 4.339 4.339 0 0 0 3.61-1.65 7.997 7.997 0 0 0 1.31-5v-2.19a7.997 7.997 0 0 0-1.31-5 4.353 4.353 0 0 0-3.61-1.64 4.299 4.299 0 0 0-3.63 1.63 8.138 8.138 0 0 0-1.28 5v2.19a8.113 8.113 0 0 0 1.28 5.01h.04Z" clip-rule="evenodd"/>
    <path fill="#000" d="M51.78 102h7.71a8.14 8.14 0 0 1-1.24 4.64 4.438 4.438 0 0 1-3.82 1.68 4.09 4.09 0 0 1-3.25-1.17 4.31 4.31 0 0 1-1-2.94V104h-4.61v.28a7.066 7.066 0 0 0 2.36 5.44 9.351 9.351 0 0 0 6.54 2.16 9.619 9.619 0 0 0 6.92-2.59c1.813-1.727 2.72-4.447 2.72-8.16v-1.32c0-3.42-.88-6.01-2.64-7.77a9.421 9.421 0 0 0-7-2.64 9.56 9.56 0 0 0-6.56 2.1 6.999 6.999 0 0 0-2.37 5.43v.29h4.61v-.29a3.998 3.998 0 0 1 1.09-3 4.56 4.56 0 0 1 3.27-1.06 4.541 4.541 0 0 1 3.66 1.51c.784.912 1.211 2.349 1.28 4.31h-7.67V102Zm20.11-6.25v6h5.44v-6h4.42v15.67h-4.42v-6.36h-5.44v6.36h-4.41V95.75h4.41Z"/>
    <path fill="#000" fill-rule="evenodd" d="M85.285 100.191a7.928 7.928 0 0 0-.515 3.149v.53a7.548 7.548 0 0 0 8.14 8.06 8.851 8.851 0 0 0 4.17-.93 5.677 5.677 0 0 0 2.51-2.43l-3.1-2A6.004 6.004 0 0 1 95 108a3.818 3.818 0 0 1-2.19.65 3.225 3.225 0 0 1-2.74-1.23 5.399 5.399 0 0 1-.93-2.76h10.82v-1.59a8.001 8.001 0 0 0-2-5.71 7 7 0 0 0-5.37-2.07A7.54 7.54 0 0 0 87 97.5a7.93 7.93 0 0 0-1.715 2.691Zm3.913 1.729h6.312v-.35a3.23 3.23 0 0 0-.78-2.19 2.72 2.72 0 0 0-2.2-.9A2.88 2.88 0 0 0 90 99.73a5.837 5.837 0 0 0-.802 2.19Zm13.482-6.17h4.13l.1 1.77h.09a3.63 3.63 0 0 1 1.69-1.49 5.998 5.998 0 0 1 2.67-.59 6.12 6.12 0 0 1 4.87 2.15 8.481 8.481 0 0 1 1.86 5.75v.48a8.609 8.609 0 0 1-1.82 5.74 5.941 5.941 0 0 1-4.77 2.16 6.8 6.8 0 0 1-2.64-.49 3.75 3.75 0 0 1-1.76-1.37v7.74h-4.41l-.01-21.85Zm5.62 12a3.331 3.331 0 0 0 2 .65 2.772 2.772 0 0 0 2.43-1.13c.595-.95.878-2.062.81-3.18v-1a5.422 5.422 0 0 0-.81-3.18 2.79 2.79 0 0 0-2.46-1.14 3.17 3.17 0 0 0-2 .63c-.513.39-.925.897-1.2 1.48v5.32a3.49 3.49 0 0 0 1.23 1.53v.02Z" clip-rule="evenodd"/>
    <path fill="#000" d="M132.22 99.06v-3.31H121.1v15.67h4.41V99.06h6.71Z"/>
    <path fill="#000" fill-rule="evenodd" d="M133.75 103.34a7.812 7.812 0 0 1 2.24-5.87 8.871 8.871 0 0 1 11.65 0 7.784 7.784 0 0 1 2.24 5.87v.48a7.78 7.78 0 0 1-2.24 5.87 8.872 8.872 0 0 1-11.65 0 7.81 7.81 0 0 1-2.24-5.87v-.48Zm4.52.73a5.161 5.161 0 0 0 .92 3.31 3.228 3.228 0 0 0 2.63 1.13 3.196 3.196 0 0 0 2.61-1.13c.676-.966 1-2.134.92-3.31v-1a5 5 0 0 0-.94-3.31 3.154 3.154 0 0 0-2.59-1.13 3.196 3.196 0 0 0-2.61 1.13 5 5 0 0 0-.94 3.31v1Z" clip-rule="evenodd"/>
    <path fill="#000" d="M167 111.42V95.75h-14.13v15.67h4.42V99.06h5.28v12.36H167Z"/>
    <path fill="#000" fill-rule="evenodd" d="M170 103.34a7.787 7.787 0 0 1 2.25-5.87 8.871 8.871 0 0 1 11.65 0 7.828 7.828 0 0 1 2.23 5.87v.48a7.823 7.823 0 0 1-2.23 5.87 8.872 8.872 0 0 1-11.65 0 7.78 7.78 0 0 1-2.25-5.87v-.48Zm4.52.73a5.094 5.094 0 0 0 .93 3.31 3.207 3.207 0 0 0 2.62 1.13 3.172 3.172 0 0 0 2.61-1.13 5.103 5.103 0 0 0 .92-3.31v-1a5.083 5.083 0 0 0-.93-3.31 3.564 3.564 0 0 0-2.605-1.129 3.573 3.573 0 0 0-2.605 1.129 5 5 0 0 0-.94 3.31v1Z" clip-rule="evenodd"/>
    <path fill="#000" d="M188.817 100.174a7.906 7.906 0 0 0-.487 3.166l-.07.44a7.504 7.504 0 0 0 4.84 7.589 7.496 7.496 0 0 0 3.16.461 7.4 7.4 0 0 0 5.28-1.75 5.445 5.445 0 0 0 1.85-4.08v-.15h-4.3v.16a2.779 2.779 0 0 1-.64 1.79 2.741 2.741 0 0 1-2.23.78 2.884 2.884 0 0 1-2.57-1.23 5.783 5.783 0 0 1-.83-3.3v-1a5.647 5.647 0 0 1 .86-3.29 3.38 3.38 0 0 1 4.71-.5 2.51 2.51 0 0 1 .71 1.81v.2h4.31V101a5.868 5.868 0 0 0-1.91-4 7.25 7.25 0 0 0-5.21-1.71 7.808 7.808 0 0 0-5.77 2.17 7.91 7.91 0 0 0-1.703 2.714Zm15.763-4.424h13.77v3.31h-4.68v12.36h-4.41V99.06h-4.68v-3.31Z"/>
    <path fill="#000" fill-rule="evenodd" d="M227.08 101.54a9.282 9.282 0 0 0-5.08 1.33 4.356 4.356 0 0 0-2.06 3.93 4.411 4.411 0 0 0 1.56 3.69 6.065 6.065 0 0 0 3.85 1.21 6.728 6.728 0 0 0 3.2-.69 4 4 0 0 0 1.74-1.56c.032.362.095.72.19 1.07.07.312.178.614.32.9h4.37v-.24a6.358 6.358 0 0 1-.46-1.45 8.876 8.876 0 0 1-.18-1.81v-7.24a4.733 4.733 0 0 0-1.77-4.06 8.07 8.07 0 0 0-4.91-1.31 8.69 8.69 0 0 0-5.09 1.37 4.12 4.12 0 0 0-2 3.5v.22h4.35v-.22a1.709 1.709 0 0 1 .141-.722 1.71 1.71 0 0 1 .429-.598 2.81 2.81 0 0 1 1.95-.54 2.36 2.36 0 0 1 1.91.66c.376.48.567 1.08.54 1.69v.87h-3Zm-1.198 7.062a2.46 2.46 0 0 1-.882-.522 2.33 2.33 0 0 1-.6-1.66 1.843 1.843 0 0 1 .81-1.62 4.363 4.363 0 0 1 2.49-.57h2.42v1.49a2.812 2.812 0 0 1-.91 2.11 3.182 3.182 0 0 1-2.31.89 2.442 2.442 0 0 1-1.018-.118ZM238.44 95.75h7.86a8.101 8.101 0 0 1 4.48 1 3.77 3.77 0 0 1 .62 5.35 4.179 4.179 0 0 1-2.29 1.2 4.8 4.8 0 0 1 2.73 1.2 3.297 3.297 0 0 1 .95 2.46 3.912 3.912 0 0 1-1.5 3.26 7.078 7.078 0 0 1-4.38 1.16h-8.47V95.75Zm7.13 6.31a2.422 2.422 0 0 0 1.7-.49 1.745 1.745 0 0 0 .53-1.38 1.495 1.495 0 0 0-.53-1.24 2.58 2.58 0 0 0-1.7-.45h-2.79v3.56h2.79Zm.45 6.61a2.521 2.521 0 0 0 1.8-.54 1.926 1.926 0 0 0 .55-1.42 1.877 1.877 0 0 0-.55-1.39 2.56 2.56 0 0 0-1.8-.52h-3.24v3.87h3.24Z" clip-rule="evenodd"/>
    <path fill="#000" d="M256 111.42h4.4l.004-6.33h1.261l4.705 6.31h5.06l-6.21-8.313 5.5-7.347h-4.75l-4.44 6h-1.124l.004-6H256v15.68Z"/>
    <path fill="#000" fill-rule="evenodd" d="M274.17 102.87a9.318 9.318 0 0 1 5.09-1.33h3v-.87a2.559 2.559 0 0 0-.54-1.69 2.367 2.367 0 0 0-1.91-.66 2.809 2.809 0 0 0-1.95.54 1.687 1.687 0 0 0-.58 1.32v.22H273v-.22a4.136 4.136 0 0 1 2-3.5 8.668 8.668 0 0 1 5.09-1.37 8.089 8.089 0 0 1 4.91 1.31 4.735 4.735 0 0 1 1.77 4.06v7.24a8.876 8.876 0 0 0 .18 1.81c.095.5.249.987.46 1.45v.24H283a4.57 4.57 0 0 1-.32-.9 7.179 7.179 0 0 1-.18-1.07 4 4 0 0 1-1.74 1.56c-.997.491-2.1.728-3.21.69a6.091 6.091 0 0 1-3.85-1.21 4.997 4.997 0 0 1-.939-5.99 4.975 4.975 0 0 1 1.409-1.63Zm3 5.21a2.44 2.44 0 0 0 1.9.64 3.19 3.19 0 0 0 2.31-.89 2.85 2.85 0 0 0 .91-2.11v-1.49h-2.42a4.361 4.361 0 0 0-2.49.57 1.846 1.846 0 0 0-.81 1.62 2.33 2.33 0 0 0 .6 1.66Z" clip-rule="evenodd"/>
    <path fill="#000" d="M298.14 100.18h-8.56V104h8.56v-3.82Zm44.52-1.12v-3.31h-11.07v15.67H336V99.06h6.66Z"/>
    <path fill="#FF7802" d="M210.61 75.52a1.425 1.425 0 0 1-.39.68h-.04a.91.91 0 0 1-.58.22.87.87 0 0 1-.6-.2 1.412 1.412 0 0 1-.38-.71l-.83.46c.127.407.388.76.74 1 .321.2.693.3 1.07.29.385.007.763-.097 1.09-.3a1.83 1.83 0 0 0 .73-1l-.81-.44Zm-2.24 2.56h-1.15v5.43h1.16l2-3.25.2-.34c.017-.035.041-.07.064-.104.044-.065.086-.127.086-.186h.07v3.91h1.14v-5.46h-1.16l-2 3.24-.2.34-.16.29h-.05v-3.87Z"/>
    <path fill="#FF7802" fill-rule="evenodd" d="M93 80.83a2.9 2.9 0 0 0-.64-1.92 2.1 2.1 0 0 0-1.77-.73 2.25 2.25 0 0 0-1.21.32 1.92 1.92 0 0 0-.77.85h-.06a2.86 2.86 0 0 1 .53-1.55 2.53 2.53 0 0 1 1.73-.77 3.159 3.159 0 0 0 1.53-.48 1.289 1.289 0 0 0 .45-1h-1a.35.35 0 0 1-.16.22 3.54 3.54 0 0 1-1 .23 3.11 3.11 0 0 0-2.34 1.33 5.33 5.33 0 0 0-.65 2.9v.29a3.49 3.49 0 0 0 .71 2.47 2.519 2.519 0 0 0 2 .76 2.58 2.58 0 0 0 1.93-.75 2.7 2.7 0 0 0 .72-2v-.17Zm-3.77 1.45a2.13 2.13 0 0 1-.37-1.28v-.17a2.14 2.14 0 0 1 .37-1.27 1.47 1.47 0 0 1 2.21 0c.254.374.384.818.37 1.27V81a2.13 2.13 0 0 1-.37 1.28 1.47 1.47 0 0 1-2.21 0Zm-9.1-2.75A3.8 3.8 0 0 1 81 76.8a3.32 3.32 0 0 1 4.69 0 3.8 3.8 0 0 1 .92 2.73V80a3.8 3.8 0 0 1-.92 2.73 3.32 3.32 0 0 1-4.69 0 3.8 3.8 0 0 1-.87-2.73v-.47ZM81.9 82a1.8 1.8 0 0 0 1.48.69 1.83 1.83 0 0 0 1.49-.69 3.13 3.13 0 0 0 .56-2v-.57a3.08 3.08 0 0 0-.56-2 1.81 1.81 0 0 0-1.49-.7 1.78 1.78 0 0 0-1.48.7 3.08 3.08 0 0 0-.56 2V80a3.13 3.13 0 0 0 .56 2Z" clip-rule="evenodd"/>
    <path fill="#FF7802" d="M94.15 78.08h1.16v4.58h2v-4.58h1.16v4.58h2v-4.58h1.16v4.58h.8V85h-1.06v-1.46h-7.22v-5.46Z"/>
    <path fill="#FF7802" fill-rule="evenodd" d="M102.87 80.73a2.913 2.913 0 0 1 .7-2 2.377 2.377 0 0 1 1.85-.78 2.228 2.228 0 0 1 1.77.73c.449.567.673 1.278.63 2v.45h-3.818c.023.402.153.793.378 1.13a1.32 1.32 0 0 0 1.15.53c.295.01.587-.067.84-.22A2.01 2.01 0 0 0 107 82l.78.57c-.209.318-.494.58-.83.76a2.63 2.63 0 0 1-1.36.33 2.549 2.549 0 0 1-2-.78 2.903 2.903 0 0 1-.7-2l-.02-.15Zm3.8-.43h-2.635c.055-.32.175-.626.355-.9a1.189 1.189 0 0 1 1.06-.53 1.11 1.11 0 0 1 .9.38c.213.263.326.592.32.93v.12Z" clip-rule="evenodd"/>
    <path fill="#FF7802" d="M108.62 80.73a2.882 2.882 0 0 1 .7-2 2.445 2.445 0 0 1 1.91-.78 2.32 2.32 0 0 1 1.71.59c.365.357.58.84.6 1.35h-1.12a1.054 1.054 0 0 0-.29-.73 1.169 1.169 0 0 0-.91-.31 1.21 1.21 0 0 0-1.07.53 2.43 2.43 0 0 0-.35 1.34v.22c-.018.471.104.937.35 1.34a1.208 1.208 0 0 0 1.07.53 1.178 1.178 0 0 0 .92-.31c.178-.201.274-.462.27-.73h1.13a1.824 1.824 0 0 1-.6 1.35 2.283 2.283 0 0 1-1.71.6 2.45 2.45 0 0 1-1.91-.78 2.882 2.882 0 0 1-.7-2v-.21Zm5.38-2.65h4.53V79h-1.69v4.57h-1.14V79H114v-.92Z"/>
    <path fill="#FF7802" fill-rule="evenodd" d="M119.44 78.08h2.49a2.55 2.55 0 0 1 1.47.36 1.2 1.2 0 0 1 .52 1.07c.012.293-.088.579-.28.8-.207.21-.472.352-.76.41.338.039.657.182.91.41a1.126 1.126 0 0 1 .32.83 1.384 1.384 0 0 1-.54 1.16c-.429.3-.948.445-1.47.41h-2.66v-5.45Zm2.4 2.27a1 1 0 0 0 .7-.2.719.719 0 0 0 .21-.55.669.669 0 0 0-.21-.52 1.069 1.069 0 0 0-.7-.18h-1.25v1.45h1.25Zm.16 2.37c.258.026.516-.05.72-.21a.77.77 0 0 0 .23-.57.74.74 0 0 0-.23-.56 1 1 0 0 0-.72-.21h-1.41v1.55H122Zm3.06-1.99a2.833 2.833 0 0 1 .73-2 2.523 2.523 0 0 1 1.93-.78 2.49 2.49 0 0 1 1.92.78c.494.546.756 1.264.73 2v.16a2.813 2.813 0 0 1-.73 2 2.491 2.491 0 0 1-1.92.78 2.52 2.52 0 0 1-1.93-.78 2.813 2.813 0 0 1-.73-2v-.16Zm1.18.19c-.02.476.113.946.38 1.34a1.411 1.411 0 0 0 2.19 0c.267-.394.4-.864.38-1.34v-.22a2.239 2.239 0 0 0-.38-1.34 1.247 1.247 0 0 0-1.09-.52 1.268 1.268 0 0 0-1.1.52 2.239 2.239 0 0 0-.38 1.34v.22Z" clip-rule="evenodd"/>
    <path fill="#FF7802" d="M133.81 80.73a2.882 2.882 0 0 1 .7-2 2.445 2.445 0 0 1 1.91-.78 2.332 2.332 0 0 1 1.71.59c.365.357.58.84.6 1.35h-1.12a1.054 1.054 0 0 0-.29-.73 1.174 1.174 0 0 0-.91-.31 1.201 1.201 0 0 0-1.07.53 2.429 2.429 0 0 0-.34 1.32v.22c-.018.471.104.937.35 1.34a1.208 1.208 0 0 0 1.07.53 1.14 1.14 0 0 0 .91-.31 1.003 1.003 0 0 0 .28-.73h1.13a1.824 1.824 0 0 1-.6 1.35 2.284 2.284 0 0 1-1.71.6 2.45 2.45 0 0 1-1.91-.78 2.882 2.882 0 0 1-.7-2l-.01-.19Z"/>
    <path fill="#FF7802" fill-rule="evenodd" d="M142.07 80.73a2.86 2.86 0 0 1 .72-2 2.78 2.78 0 0 1 3.86 0 2.87 2.87 0 0 1 .73 2v.16a2.849 2.849 0 0 1-.73 2 2.78 2.78 0 0 1-3.86 0 2.85 2.85 0 0 1-.72-2v-.16Zm1.18.19c-.024.475.106.945.37 1.34a1.42 1.42 0 0 0 2.2 0c.264-.395.394-.865.37-1.34v-.22a2.227 2.227 0 0 0-.37-1.34 1.28 1.28 0 0 0-1.1-.52 1.252 1.252 0 0 0-1.09.52c-.27.393-.404.864-.38 1.34v.22Z" clip-rule="evenodd"/>
    <path fill="#FF7802" d="M152.2 78.08V79h-2.51v4.57h-1.16v-5.49h3.67Z"/>
    <path fill="#FF7802" fill-rule="evenodd" d="M153.1 78.08h1.06v.68a1.55 1.55 0 0 1 .62-.56 2.24 2.24 0 0 1 2.65.54 3.06 3.06 0 0 1 .63 2v.16a3.106 3.106 0 0 1-.62 2 2.059 2.059 0 0 1-1.67.77 2.153 2.153 0 0 1-1-.2 1.65 1.65 0 0 1-.64-.52v2.75h-1.03v-7.62Zm1.64 4.39c.239.179.532.27.83.26a1.15 1.15 0 0 0 1-.5 2.3 2.3 0 0 0 .34-1.31v-.22a2.257 2.257 0 0 0-.34-1.3 1.148 1.148 0 0 0-1-.51 1.35 1.35 0 0 0-.83.26c-.21.161-.378.37-.49.61v2.1c.109.242.278.452.49.61Zm4.93-1.86a3.001 3.001 0 0 1 1.71-.46h1.18v-.35a1.091 1.091 0 0 0-.24-.73.998.998 0 0 0-.8-.29 1.15 1.15 0 0 0-.82.24.715.715 0 0 0-.25.55v.05h-1.15v-.05a1.44 1.44 0 0 1 .62-1.16 2.52 2.52 0 0 1 1.64-.49 2.45 2.45 0 0 1 1.59.47 1.714 1.714 0 0 1 .57 1.41v2.5a2.943 2.943 0 0 0 .2 1.16v.08h-1.13a1.944 1.944 0 0 1-.12-.33 1.882 1.882 0 0 1-.08-.4c-.143.248-.355.45-.61.58a2.17 2.17 0 0 1-1.11.26 2.089 2.089 0 0 1-1.33-.44 1.523 1.523 0 0 1-.54-1.27 1.506 1.506 0 0 1 .67-1.33Zm.73 1.92a1.072 1.072 0 0 0 .79.26 1.4 1.4 0 0 0 .95-.37.998.998 0 0 0 .42-.8v-.7h-1a1.778 1.778 0 0 0-1 .25.804.804 0 0 0-.35.68.93.93 0 0 0 .19.68Z" clip-rule="evenodd"/>
    <path fill="#FF7802" d="M166.34 78.08v2.23h2.25v-2.23h1.17v5.46h-1.17v-2.35h-2.25v2.35h-1.16v-5.46h1.16Zm4.89 0h1.15v3.87l.16-.29.2-.34 2-3.24h1.16v5.46h-1.14v-3.91h-.07l-.16.29a2.945 2.945 0 0 1-.19.34l-2 3.25h-1.16l.05-5.43Zm7.43 2.33c.238.185.539.271.84.24.282.004.563-.02.84-.07.076 0 .156-.01.24-.026V78.08h1.16v5.46h-1.16v-2.136a7.403 7.403 0 0 1-.28.046c-.353.063-.712.09-1.07.08a2.091 2.091 0 0 1-1.5-.47 2.046 2.046 0 0 1-.47-1.48v-1.5h1.15v1.45c-.031.314.058.629.25.88Z"/>
    <path fill="#FF7802" fill-rule="evenodd" d="M182.9 80.73a2.913 2.913 0 0 1 .7-2 2.39 2.39 0 0 1 1.85-.78 2.228 2.228 0 0 1 1.77.73c.449.567.673 1.278.63 2v.45h-3.831c.011.42.139.828.371 1.18a1.325 1.325 0 0 0 1.15.53c.299.01.594-.067.85-.22.248-.158.456-.37.61-.62l.78.57c-.205.318-.487.58-.82.76a2.7 2.7 0 0 1-1.37.33 2.563 2.563 0 0 1-2-.78 2.903 2.903 0 0 1-.7-2l.01-.15Zm3.75-.43h-2.607a2.38 2.38 0 0 1 .327-.9 1.2 1.2 0 0 1 1.06-.53 1.11 1.11 0 0 1 .9.38c.212.263.326.592.32.93v.12Z" clip-rule="evenodd"/>
    <path fill="#FF7802" d="M190.12 78.08v2.23h2.26v-2.23h1.17v5.46h-1.17v-2.35h-2.26v2.35H189v-5.46h1.12Zm6.06 0v2.23h2.25v-2.23h1.17v5.46h-1.17v-2.35h-2.25v2.35H195v-5.46h1.18Z"/>
    <path fill="#FF7802" fill-rule="evenodd" d="M200.76 80.73a2.86 2.86 0 0 1 .72-2 2.78 2.78 0 0 1 3.86 0 2.86 2.86 0 0 1 .72 2v.16a2.85 2.85 0 0 1-.72 2 2.78 2.78 0 0 1-3.86 0 2.85 2.85 0 0 1-.72-2v-.16Zm1.18.19c-.024.475.106.945.37 1.34a1.42 1.42 0 0 0 2.2 0c.264-.395.394-.865.37-1.34v-.22a2.227 2.227 0 0 0-.37-1.34 1.42 1.42 0 0 0-2.2 0 2.227 2.227 0 0 0-.37 1.34v.22Zm14.45-2.19a2.833 2.833 0 0 0-.73 2v.16a2.813 2.813 0 0 0 .73 2 2.771 2.771 0 0 0 3.85 0 2.849 2.849 0 0 0 .73-2v-.16a2.87 2.87 0 0 0-.73-2 2.77 2.77 0 0 0-3.85 0Zm.82 3.53a2.28 2.28 0 0 1-.37-1.34v-.22a2.239 2.239 0 0 1 .38-1.34 1.247 1.247 0 0 1 1.09-.52 1.268 1.268 0 0 1 1.1.52c.263.396.393.865.37 1.34v.22c.024.475-.106.945-.37 1.34a1.42 1.42 0 0 1-2.2 0Z" clip-rule="evenodd"/>
    <path fill="#FF7802" d="M226.07 78.08h-4.53V79h1.69v4.57h1.16V79h1.68v-.92Z"/>
    <path fill="#FF7802" fill-rule="evenodd" d="M229.48 78.08H227v5.45h2.66a2.33 2.33 0 0 0 1.47-.41 1.38 1.38 0 0 0 .54-1.16 1.1 1.1 0 0 0-.33-.83 1.609 1.609 0 0 0-.91-.41 1.44 1.44 0 0 0 .76-.41c.195-.22.298-.506.29-.8a1.219 1.219 0 0 0-.52-1.07 2.59 2.59 0 0 0-1.48-.36Zm.62 2.07a1 1 0 0 1-.7.2h-1.26V78.9h1.26c.247-.02.493.043.7.18a.66.66 0 0 1 .21.52.719.719 0 0 1-.21.55Zm.18 2.36c-.204.16-.462.236-.72.21h-1.42v-1.55h1.42a1 1 0 0 1 .72.21.74.74 0 0 1 .23.56.789.789 0 0 1-.23.57Zm3.01-3.78a2.913 2.913 0 0 0-.7 2l-.05.24a2.903 2.903 0 0 0 .7 2 2.56 2.56 0 0 0 2 .78 2.7 2.7 0 0 0 1.37-.33c.331-.183.612-.444.82-.76l-.78-.57a1.937 1.937 0 0 1-.57.53c-.256.153-.551.23-.85.22a1.321 1.321 0 0 1-1.15-.53 2.252 2.252 0 0 1-.371-1.18h3.831v-.45a2.938 2.938 0 0 0-.63-2 2.222 2.222 0 0 0-1.77-.73 2.377 2.377 0 0 0-1.85.78Zm.443 1.57h2.607v-.12a1.436 1.436 0 0 0-.32-.93 1.11 1.11 0 0 0-.9-.38 1.201 1.201 0 0 0-1.06.53 2.38 2.38 0 0 0-.327.9Z" clip-rule="evenodd"/>
    <path fill="#FF7802" d="M242.61 78.08h-4.54V79h1.69v4.57h1.16V79h1.69v-.92Zm1.28.65a2.887 2.887 0 0 0-.71 2l.02.21a2.887 2.887 0 0 0 .71 2 2.42 2.42 0 0 0 1.9.78 2.318 2.318 0 0 0 1.72-.6 1.854 1.854 0 0 0 .59-1.35H247c0 .27-.1.53-.28.73a1.17 1.17 0 0 1-.91.31 1.197 1.197 0 0 1-1.08-.53 2.4 2.4 0 0 1-.34-1.34v-.22a2.344 2.344 0 0 1 .35-1.34 1.206 1.206 0 0 1 1.07-.53 1.16 1.16 0 0 1 .9.31 1.005 1.005 0 0 1 .29.73h1.1a1.998 1.998 0 0 0-.6-1.35 2.315 2.315 0 0 0-1.71-.59 2.418 2.418 0 0 0-1.9.78Zm9.22-.65h-4.53V79h1.69v4.57h1.16V79h1.68v-.92Z"/>
    <path fill="#FF7802" fill-rule="evenodd" d="M256.48 78.08H254v5.45h2.66a2.33 2.33 0 0 0 1.47-.41 1.38 1.38 0 0 0 .54-1.16 1.1 1.1 0 0 0-.33-.83 1.609 1.609 0 0 0-.91-.41 1.44 1.44 0 0 0 .76-.41 1.15 1.15 0 0 0 .28-.8 1.222 1.222 0 0 0-.51-1.07 2.59 2.59 0 0 0-1.48-.36Zm.61 2.07a1 1 0 0 1-.69.2h-1.26V78.9h1.26a1.06 1.06 0 0 1 .69.18.652.652 0 0 1 .22.52.684.684 0 0 1-.22.55Zm.19 2.36a1.08 1.08 0 0 1-.73.21h-1.41v-1.55h1.41a1 1 0 0 1 .73.21.735.735 0 0 1 .22.56.77.77 0 0 1-.22.57Zm3.05-3.78a2.913 2.913 0 0 0-.7 2l-.01.24a2.903 2.903 0 0 0 .7 2 2.54 2.54 0 0 0 2 .78c.478.015.951-.1 1.37-.33.336-.18.621-.442.83-.76l-.78-.57a2.001 2.001 0 0 1-.58.53 1.54 1.54 0 0 1-.85.22 1.312 1.312 0 0 1-1.14-.53 2.256 2.256 0 0 1-.38-1.18h3.79v-.45a2.938 2.938 0 0 0-.63-2 2.23 2.23 0 0 0-1.77-.73 2.374 2.374 0 0 0-1.85.78Zm.486 1.57h2.614v-.12a1.441 1.441 0 0 0-.32-.93 1.11 1.11 0 0 0-.9-.38 1.178 1.178 0 0 0-1.06.53 2.385 2.385 0 0 0-.334.9Z" clip-rule="evenodd"/>
    <path fill="#FF7802" d="M266.85 80.31v-2.23h-1.16v5.46h1.16v-2.35h2.26v2.35h1.16v-5.46h-1.16v2.23h-2.26Zm6.05 0v-2.23h-1.15v5.46h1.15v-2.35h2.26v2.35h1.16v-5.46h-1.16v2.23h-2.26Z"/>
    <path fill="#FF7802" fill-rule="evenodd" d="M278.21 78.73a2.833 2.833 0 0 0-.73 2v.16a2.813 2.813 0 0 0 .73 2 2.525 2.525 0 0 0 1.93.78 2.49 2.49 0 0 0 1.92-.78 2.809 2.809 0 0 0 .73-2v-.16a2.828 2.828 0 0 0-.73-2 2.49 2.49 0 0 0-1.92-.78 2.516 2.516 0 0 0-1.93.78Zm.83 3.53a2.224 2.224 0 0 1-.38-1.34v-.22a2.239 2.239 0 0 1 .38-1.34 1.27 1.27 0 0 1 1.1-.52 1.25 1.25 0 0 1 1.09.52c.266.395.399.864.38 1.34v.22c.02.476-.113.946-.38 1.34a1.411 1.411 0 0 1-2.19 0Z" clip-rule="evenodd"/>
    <path fill="#FF7802" d="M284.34 78.73a2.887 2.887 0 0 0-.71 2l.04.19a2.887 2.887 0 0 0 .71 2 2.422 2.422 0 0 0 1.9.78 2.318 2.318 0 0 0 1.72-.6 1.872 1.872 0 0 0 .55-1.33h-1.12c0 .27-.1.53-.28.73a1.17 1.17 0 0 1-.91.31 1.197 1.197 0 0 1-1.08-.53 2.395 2.395 0 0 1-.35-1.34v-.22c-.018-.473.108-.94.36-1.34a1.199 1.199 0 0 1 1.07-.53 1.16 1.16 0 0 1 .9.31 1.005 1.005 0 0 1 .29.73h1.12a1.998 1.998 0 0 0-.6-1.35 2.315 2.315 0 0 0-1.71-.59 2.418 2.418 0 0 0-1.9.78Zm9.19-.65H289V79h1.69v4.57h1.15V79h1.69v-.92Z"/>
    <path fill="#FF7802" fill-rule="evenodd" d="M296.85 79.91h-1.24v-1.83h-1.16v5.46h2.4a2.36 2.36 0 0 0 1.59-.48 1.883 1.883 0 0 0 0-2.66 2.31 2.31 0 0 0-1.59-.49Zm-1.24 2.78v-1.92h1.15a1.105 1.105 0 0 1 .83.26 1.129 1.129 0 0 1 0 1.39c-.112.1-.243.177-.386.223-.143.047-.294.063-.444.047h-1.15Zm5.57-2.38v-2.23H300v5.46h1.18v-2.35h1.005a2.85 2.85 0 0 0 .715 1.7 2.68 2.68 0 0 0 3.78 0 2.85 2.85 0 0 0 .72-2v-.16a2.86 2.86 0 0 0-.72-2 2.68 2.68 0 0 0-3.78 0 2.866 2.866 0 0 0-.704 1.58h-1.016Zm2.55 1.95a2.331 2.331 0 0 1-.36-1.34v-.22a2.299 2.299 0 0 1 .36-1.34 1.338 1.338 0 0 1 1.65-.383c.184.09.345.221.47.383a2.3 2.3 0 0 1 .36 1.34v.22c.019.473-.107.94-.36 1.34a1.338 1.338 0 0 1-1.65.383 1.338 1.338 0 0 1-.47-.383Z" clip-rule="evenodd"/>
    <path fill="#FF7802" d="M98.03 116.91H47.34v1.38h50.69v-1.38Zm15.15 0h229.48v1.38H113.18v-1.38Z"/>
  </g>
  <defs>
    <linearGradient id="c" x1="67.07" x2="67.07" y1="51.07" y2="127.26" gradientUnits="userSpaceOnUse">
      <stop stop-color="#F5B703"/>
      <stop offset="1" stop-color="#FF7802"/>
    </linearGradient>
    <linearGradient id="d" x1="67.07" x2="67.07" y1="51.07" y2="127.26" gradientUnits="userSpaceOnUse">
      <stop stop-color="#F5B703"/>
      <stop offset="1" stop-color="#FF7802"/>
    </linearGradient>
    <linearGradient id="e" x1="67.07" x2="67.07" y1="51.07" y2="127.26" gradientUnits="userSpaceOnUse">
      <stop stop-color="#F5B703"/>
      <stop offset="1" stop-color="#FF7802"/>
    </linearGradient>
    <linearGradient id="f" x1="67.07" x2="67.07" y1="51.07" y2="127.26" gradientUnits="userSpaceOnUse">
      <stop stop-color="#F5B703"/>
      <stop offset="1" stop-color="#FF7802"/>
    </linearGradient>
    <linearGradient id="g" x1="67.07" x2="67.07" y1="51.07" y2="127.26" gradientUnits="userSpaceOnUse">
      <stop stop-color="#F5B703"/>
      <stop offset="1" stop-color="#FF7802"/>
    </linearGradient>
    <linearGradient id="h" x1="67.07" x2="67.07" y1="51.07" y2="127.26" gradientUnits="userSpaceOnUse">
      <stop stop-color="#F5B703"/>
      <stop offset="1" stop-color="#FF7802"/>
    </linearGradient>
    <linearGradient id="i" x1="67.07" x2="67.07" y1="51.07" y2="127.26" gradientUnits="userSpaceOnUse">
      <stop stop-color="#F5B703"/>
      <stop offset="1" stop-color="#FF7802"/>
    </linearGradient>
    <linearGradient id="j" x1="67.07" x2="67.07" y1="51.07" y2="127.26" gradientUnits="userSpaceOnUse">
      <stop stop-color="#F5B703"/>
      <stop offset="1" stop-color="#FF7802"/>
    </linearGradient>
    <linearGradient id="k" x1="67.07" x2="67.07" y1="51.07" y2="127.26" gradientUnits="userSpaceOnUse">
      <stop stop-color="#F5B703"/>
      <stop offset="1" stop-color="#FF7802"/>
    </linearGradient>
    <linearGradient id="l" x1="67.07" x2="67.07" y1="51.07" y2="127.26" gradientUnits="userSpaceOnUse">
      <stop stop-color="#F5B703"/>
      <stop offset="1" stop-color="#FF7802"/>
    </linearGradient>
    <linearGradient id="m" x1="67.07" x2="67.07" y1="51.07" y2="127.26" gradientUnits="userSpaceOnUse">
      <stop stop-color="#F5B703"/>
      <stop offset="1" stop-color="#FF7802"/>
    </linearGradient>
    <linearGradient id="n" x1="67.07" x2="67.07" y1="51.07" y2="127.26" gradientUnits="userSpaceOnUse">
      <stop stop-color="#F5B703"/>
      <stop offset="1" stop-color="#FF7802"/>
    </linearGradient>
    <linearGradient id="o" x1="67.07" x2="67.07" y1="51.07" y2="127.26" gradientUnits="userSpaceOnUse">
      <stop stop-color="#F5B703"/>
      <stop offset="1" stop-color="#FF7802"/>
    </linearGradient>
    <linearGradient id="p" x1="67.07" x2="67.07" y1="51.07" y2="127.26" gradientUnits="userSpaceOnUse">
      <stop stop-color="#F5B703"/>
      <stop offset="1" stop-color="#FF7802"/>
    </linearGradient>
    <linearGradient id="q" x1="67.07" x2="67.07" y1="51.07" y2="127.26" gradientUnits="userSpaceOnUse">
      <stop stop-color="#F5B703"/>
      <stop offset="1" stop-color="#FF7802"/>
    </linearGradient>
    <linearGradient id="r" x1="67.07" x2="67.07" y1="51.07" y2="127.26" gradientUnits="userSpaceOnUse">
      <stop stop-color="#F5B703"/>
      <stop offset="1" stop-color="#FF7802"/>
    </linearGradient>
    <clipPath id="a">
      <use xlink:href="#b" transform="translate(.996)"/>
    </clipPath>
  </defs>
</svg>
