<svg xmlns="http://www.w3.org/2000/svg" xmlns:xlink="http://www.w3.org/1999/xlink" width="211" height="196" fill="none" viewBox="0 0 211 196">
  <defs>
    <path id="b" fill="#fff" d="M0 0h211v195.012H0z"/>
  </defs>
  <g clip-path="url(#a)">
    <use xlink:href="#b"/>
    <path fill="#F51027" d="M89.908 192.146c-20.5 7.084-53.271.364-71.235-12.802-24.566-14.887-24.343-51.371-2.444-68.556 11.076-10.596 25.266-17.245 39.467-22.66 4.057-2.094 17.871-3.957 18.784-7.215 3.46-6.65 2.384-16.679 11.574-18.642 6.775-2.267 11.796-8.4 17.669-12.509 2.749-2.54 9.676-4.625 9.899-8.45 7.598.232 9.342 9.897 12.334 15.352l.467-.121c-1.258-9.696-8.043-18.49-18.389-18.683-3.814-.576-7.466 2.075-11.077.88 1.654-1.467 4.798-2.286 4.281-4.857-2.445 3.036-6.553 5.334-9.565 1.69-2.242-2.176-3.428-3.188.385-4.453 1.46-.08 1.015 1.448 1.33 3.613.628-4.524.242-6.011-4.23-3.45-1.837-.608 4.543-5.79 5.07-7.247 2.861-6.022 6.563-13.46 13.998-13.946 2.982-4.918 3.317-11.72 11.158-9.736 7.1 1.387 3.631 10.313 6.674 14.574 6.806 5.06 9.899 13.156 15.265 19.532 6.979 9.523 4.27 22.265 2.029 32.962-1.217 7.004-6.248 13.946-3.489 21.02-.71 2.267-3.196.85-4.849.931-2.627.365-3.915-2.651-5-4.787 4.584-5.13 9.453-11.73 9.737-18.722h-.304a34.7 34.7 0 0 1-9.616 15.352c-1.592 2.146-7.77-13.298-9.504-15.18-1.734 2.56 8.378 17.417 9.656 21.991 2.435 5.273 7.384-.455 9.443 5.85 2.638 3.481-3.489 3.238-5.436 4.26-3.043-.586-6.492-.91-9.545-1.821-3.378.152-9.058-15.849-12.111-19.654-2.424-7.266 1.329-15.373-.446-22.892-.598 7.175-1.866 14.33-1.897 21.495a83.586 83.586 0 0 0 7.496 13.683 127.438 127.438 0 0 1-20.215 5.172c-6.715-.253-13.308.79-18.663 5.222.608.516 1.014.617 1.562 0 4.016-2.338 9.088-3.896 13.764-3.198 1.947 1.336 1.237 3.866 1.197 5.809.162 1.265-1.248 1.812-2.14 2.297-1.116.415-2.506.132-3.601.719-.883.486-1.491 0-2.029-.567-.537-.567-.822-1.65-1.917-1.781-3.834-.506-6.755 3.036-10.66 2.621-3.043-.557-4.615-4.23-6.482-6.467-.527-1.781-.101-3.856-.233-5.83-100.903 22.063-70.332 109.342 21.838 99.201ZM101.43 29.177c-1.531-.253-3.316 1.61-4.615 1.913 0 .92.142.182.142 1.012 3.632 0 7.303 1.488 11.158.961a46.069 46.069 0 0 0-8.784-1.194v-.496a143.612 143.612 0 0 1 16.3-1.71v-.375c-3.784-.141-7.618-.647-11.35.456-.852.293-2.12.658-2.83-.587 2.515.121 4.716-.89 6.917-1.883-2.262.051-5.741.243-6.938 1.903Zm-7.039 57.444.426.11c3.358-7.721 8.176-15.119 2.303-23.013l-.538.142c2.434 12.043 1.055 11.213-2.19 22.76Zm19.079-49.368c2.891-.718 5.691-.09 8.541.516-.294-2.216-8.307-2.439-8.541-.516Zm-10.021-16.192c-1.501-.486-4.757.556-4.057 2.439a3.638 3.638 0 0 0 2.48-.453 3.627 3.627 0 0 0 1.587-1.956l-.01-.03Z"/>
    <path fill="#000" d="M201 117h2.914c.794 0 1.415.186 1.862.557.45.367.676.839.676 1.418 0 .519-.192.977-.575 1.376a2.712 2.712 0 0 1-1.37.784l1.765 2.215c.515.634 1.175 1.206 1.981 1.717h-1.125c-.331 0-.606-.046-.826-.138a1.527 1.527 0 0 1-.598-.472l-1.496-1.856-1.125-1.723a5.08 5.08 0 0 0 .598-.126c.188-.056.377-.129.569-.221.191-.096.355-.206.49-.329.136-.128.246-.284.329-.467.088-.184.132-.387.132-.611 0-.422-.157-.76-.473-1.011a1.57 1.57 0 0 0-1.107-.353 6.666 6.666 0 0 0-.832.102v5.488l-.006.221v.257c.004.04.008.12.012.24.008.115.018.201.03.257l.066.221c.028.092.06.164.096.216.04.048.09.098.149.15a.67.67 0 0 0 .204.119v.036H201v-.036a.625.625 0 0 0 .197-.114.818.818 0 0 0 .144-.155.776.776 0 0 0 .102-.216c.028-.091.048-.167.06-.227.012-.064.02-.15.024-.257.008-.108.012-.188.012-.24a2.553 2.553 0 0 0 0-.251v-5.057a2.53 2.53 0 0 0 0-.251c0-.056-.004-.138-.012-.246a1.713 1.713 0 0 0-.024-.257 1.904 1.904 0 0 0-.06-.227.603.603 0 0 0-.096-.21.897.897 0 0 0-.15-.161.57.57 0 0 0-.197-.12V117Z"/>
    <circle cx="204" cy="121" r="6.75" stroke="#000" stroke-width=".5"/>
    <path fill="#000" d="M110.808 175.703H98.464c.033 2.003.674 3.584 1.921 4.744 1.259 1.16 2.862 1.74 4.81 1.74 2.177 0 4.016-.591 5.515-1.773h.098l-1.674 3.152c-1.357.569-2.905.854-4.645.854-2.824 0-5.138-.788-6.944-2.364-1.805-1.576-2.708-3.546-2.708-5.909 0-2.353.777-4.285 2.33-5.795 1.566-1.521 3.59-2.281 6.074-2.281 2.276 0 4.12.727 5.532 2.183 1.423 1.444 2.101 3.261 2.035 5.449Zm-12.196-1.953h8.667c-.372-2.309-1.816-3.463-4.333-3.463-1.127 0-2.079.311-2.856.935-.777.624-1.27 1.467-1.478 2.528Zm14.272-11.901h2.742c.12-.01.202-.016.246-.016a1.81 1.81 0 0 1 .213-.033c.11-.011.192-.022.247-.033.054-.021.12-.043.197-.065.087-.033.158-.066.213-.099.055-.033.109-.071.164-.115.066-.054.126-.109.181-.164h.098v18.926c0 .099-.005.34-.016.723v.738c.011.11.038.307.082.591.044.285.104.493.18.624.088.131.214.29.378.476a2.2 2.2 0 0 0 .607.476v.098h-5.532v-.098c.197-.12.367-.241.509-.361.154-.132.274-.285.361-.46.088-.186.159-.339.214-.459.055-.121.093-.301.115-.542.022-.252.033-.432.033-.542a5.57 5.57 0 0 0 0-.624v-15.922c.011-.317.011-.53 0-.64 0-.109-.011-.284-.033-.525-.022-.252-.06-.438-.115-.558a12.84 12.84 0 0 0-.214-.443 1.237 1.237 0 0 0-.361-.46 3.283 3.283 0 0 0-.509-.378v-.115Zm24.138 13.854h-12.344c.033 2.003.673 3.584 1.921 4.744 1.258 1.16 2.861 1.74 4.809 1.74 2.178 0 4.016-.591 5.515-1.773h.099l-1.674 3.152c-1.357.569-2.906.854-4.646.854-2.823 0-5.138-.788-6.943-2.364-1.806-1.576-2.709-3.546-2.709-5.909 0-2.353.777-4.285 2.331-5.795 1.565-1.521 3.59-2.281 6.074-2.281 2.276 0 4.12.727 5.531 2.183 1.423 1.444 2.101 3.261 2.036 5.449Zm-12.196-1.953h8.667c-.372-2.309-1.817-3.463-4.334-3.463-1.127 0-2.079.311-2.856.935-.777.624-1.269 1.467-1.477 2.528Zm27.141-5.269v3.463h-.098c-.471-.536-1.078-.946-1.822-1.231a6.268 6.268 0 0 0-2.282-.426c-1.631 0-2.977.514-4.038 1.543-1.051 1.028-1.576 2.341-1.576 3.939 0 1.882.684 3.425 2.052 4.629 1.368 1.193 3.015 1.789 4.941 1.789.842 0 1.701-.148 2.577-.443a8.679 8.679 0 0 0 2.331-1.198h.098l-1.74 3.201c-1.171.448-2.653.673-4.448.673-2.583 0-4.766-.75-6.55-2.249-1.772-1.499-2.659-3.338-2.659-5.516 0-1.4.257-2.653.772-3.758.525-1.117 1.231-2.019 2.117-2.709a9.873 9.873 0 0 1 3.053-1.576 11.985 11.985 0 0 1 3.644-.541c1.193 0 2.402.136 3.628.41Zm7.756 2.249v6.73c0 .065-.006.213-.017.443v.558c0 .131.006.328.017.591.021.252.049.465.082.64.043.164.098.367.164.608.076.24.164.443.262.607.11.153.247.317.411.492.164.175.35.318.558.427.219.099.47.186.755.263.295.065.618.098.968.098.307 0 .756-.109 1.346-.328l-1.789 2.38c-.405.12-.76.181-1.067.181a5.8 5.8 0 0 1-1.805-.263c-.526-.175-.952-.41-1.281-.706a5.073 5.073 0 0 1-.837-1.018 3.998 3.998 0 0 1-.509-1.181 68.748 68.748 0 0 1-.246-1.232 5.79 5.79 0 0 1-.082-1.116 8.29 8.29 0 0 0 .016-.886v-7.288h-2.281v-1.215c.766-.131 1.417-.366 1.953-.706.536-.35.947-.799 1.231-1.346a6.072 6.072 0 0 0 .624-1.772 10.88 10.88 0 0 0 .197-2.184h1.33v5.007h3.168c.634 0 1.061-.066 1.28-.197h.098v3.053h-.098a.837.837 0 0 0-.197-.197.814.814 0 0 0-.246-.164l-.23-.115a1.097 1.097 0 0 0-.295-.082 18.058 18.058 0 0 1-.263-.049 1.89 1.89 0 0 0-.312-.017 5.334 5.334 0 0 0-.295-.016h-2.61Zm6.475-2.216h2.15c1.029 0 1.713-.148 2.052-.443h.098v2.56a4.563 4.563 0 0 1 1.642-1.855 4.194 4.194 0 0 1 2.331-.705l1.198.098v3.102c-.328-.361-.843-.541-1.543-.541-1.291 0-2.221.372-2.79 1.116-.558.744-.838 1.975-.838 3.693v4.711c0 .099-.005.285-.016.558v.558c.011.099.022.258.033.476.011.219.033.384.066.493.032.109.076.252.131.427.066.175.142.317.23.426.098.11.213.23.344.362.143.12.307.229.493.328v.098h-5.614v-.098c.186-.099.345-.208.476-.328.142-.132.257-.252.345-.362.098-.109.175-.251.23-.426.065-.175.114-.318.147-.427.033-.109.055-.274.066-.493.011-.218.016-.377.016-.476a4.52 4.52 0 0 0 0-.558v-9.225a5.39 5.39 0 0 0 0-.623c0-.099-.011-.274-.032-.526-.022-.262-.061-.448-.115-.558a12.694 12.694 0 0 0-.23-.427 1.254 1.254 0 0 0-.361-.459 3.332 3.332 0 0 0-.509-.378v-.098Zm10.94 0h2.052c1.05 0 1.778-.181 2.183-.542h.098v12.278c0 .099-.005.285-.016.558v.558c.011.099.022.258.033.476.011.219.033.384.065.493l.132.427c.065.175.142.317.23.426.098.11.213.23.344.362.142.12.307.229.493.328v.098h-5.614v-.098a3.61 3.61 0 0 0 .525-.361c.153-.132.274-.285.361-.46.099-.186.175-.339.23-.459.055-.121.093-.307.115-.559.022-.251.033-.426.033-.525a5.842 5.842 0 0 0 0-.64v-9.291a5.477 5.477 0 0 0 0-.623c0-.11-.011-.285-.033-.526-.022-.251-.06-.437-.115-.558a5.996 5.996 0 0 0-.23-.443 1.283 1.283 0 0 0-.361-.443 2.988 2.988 0 0 0-.525-.378v-.098Zm4.104-5.598c.393.405.59.892.59 1.461 0 .569-.197 1.067-.59 1.494-.383.416-.86.624-1.429.624-.623 0-1.143-.214-1.559-.64-.416-.427-.624-.952-.624-1.576 0-.569.219-1.04.657-1.412a2.246 2.246 0 0 1 1.526-.574c.569 0 1.046.208 1.429.623Zm17.144 5.565v3.463h-.098c-.471-.536-1.078-.946-1.822-1.231a6.264 6.264 0 0 0-2.282-.426c-1.63 0-2.976.514-4.038 1.543-1.05 1.028-1.576 2.341-1.576 3.939 0 1.882.684 3.425 2.052 4.629 1.368 1.193 3.015 1.789 4.941 1.789.843 0 1.702-.148 2.577-.443a8.679 8.679 0 0 0 2.331-1.198h.098l-1.74 3.201c-1.17.448-2.653.673-4.448.673-2.582 0-4.766-.75-6.549-2.249-1.773-1.499-2.659-3.338-2.659-5.516 0-1.4.257-2.653.771-3.758.525-1.117 1.231-2.019 2.117-2.709a9.878 9.878 0 0 1 3.054-1.576 11.98 11.98 0 0 1 3.644-.541c1.192 0 2.402.136 3.627.41ZM41.979 135.695v8.878c0 1.052.019 1.87.056 2.452.038.564.132 1.231.282 2.001.15.771.404 1.456.761 2.058.357.601.836 1.183 1.437 1.747V153H28.873v-.169a5.1 5.1 0 0 0 .902-.761c.264-.282.48-.545.649-.789.188-.263.338-.592.45-.987.113-.394.198-.723.254-.986.075-.282.122-.658.141-1.127.038-.489.057-.855.057-1.1 0-.263-.01-.667-.029-1.211v-23.9c.02-.695.02-1.156 0-1.381 0-.226-.018-.62-.056-1.184-.038-.582-.113-1.014-.226-1.296-.112-.282-.253-.63-.422-1.043a2.929 2.929 0 0 0-.705-1.043 4.96 4.96 0 0 0-1.015-.817v-.197h20.208c1.184 0 1.992-.113 2.424-.339h.17v8.371h-.17a3.503 3.503 0 0 0-.676-.874 5.601 5.601 0 0 0-.761-.648c-.245-.169-.564-.31-.959-.423a19.271 19.271 0 0 0-.958-.253c-.244-.057-.61-.094-1.099-.113a15.457 15.457 0 0 0-1.043-.057c-.206-.018-.592-.018-1.155 0h-2.875v9.357h4.2c.995 0 1.71-.094 2.141-.281h.282v8.06h-.282c-.169-.488-.413-.883-.733-1.184-.319-.3-.742-.507-1.268-.62a6.773 6.773 0 0 0-1.296-.225 29.782 29.782 0 0 0-1.522-.028h-.367l-1.155-.057Zm13.88 6.426c-1.071-2.499-1.607-5.242-1.607-8.229 0-2.988.583-5.74 1.748-8.258 1.165-2.518 2.733-4.604 4.706-6.257 1.973-1.672 4.275-2.969 6.905-3.889 2.63-.921 5.412-1.381 8.343-1.381 3.044 0 5.843.441 8.398 1.324 2.556.865 4.773 2.123 6.652 3.777 1.879 1.635 3.344 3.701 4.396 6.2s1.579 5.308 1.579 8.427c0 2.462-.376 4.763-1.128 6.905-.751 2.123-1.803 3.974-3.156 5.552a19.982 19.982 0 0 1-4.707 4.059c-1.804 1.127-3.786 1.982-5.947 2.565a26.72 26.72 0 0 1-6.764.845c-2.95 0-5.712-.47-8.286-1.409-2.555-.94-4.782-2.255-6.68-3.946-1.878-1.691-3.362-3.786-4.452-6.285Zm9.61-9.78c0 1.691.254 3.542.761 5.553.508 1.991 1.156 3.701 1.945 5.129a11.019 11.019 0 0 0 3.326 3.579c1.39.921 2.874 1.381 4.453 1.381a8.887 8.887 0 0 0 4.255-1.071 10.463 10.463 0 0 0 3.439-2.987c1.409-1.898 2.114-4.585 2.114-8.061a24.1 24.1 0 0 0-.254-3.466 28.616 28.616 0 0 0-.705-3.579 15.35 15.35 0 0 0-1.324-3.439 13.96 13.96 0 0 0-1.973-2.818 7.522 7.522 0 0 0-2.706-1.973c-1.07-.489-2.245-.733-3.523-.733-1.315 0-2.527.244-3.635.733-1.09.488-2.01 1.137-2.762 1.945a11.447 11.447 0 0 0-1.917 2.846 14.685 14.685 0 0 0-1.155 3.382 18.79 18.79 0 0 0-.339 3.579Zm35.441 19.334-1.917-8.314c1.654 1.353 3.58 2.443 5.778 3.27 2.198.826 4.321 1.24 6.369 1.24.977 0 1.898-.104 2.762-.31a5.256 5.256 0 0 0 2.311-1.297c.696-.657 1.043-1.494 1.043-2.508 0-.94-.329-1.785-.986-2.537-.639-.77-1.475-1.428-2.509-1.973a50.19 50.19 0 0 0-3.438-1.634 50.739 50.739 0 0 1-3.777-1.888 21.24 21.24 0 0 1-3.41-2.368c-1.033-.883-1.879-2.02-2.536-3.41-.64-1.391-.959-2.959-.959-4.707a10.273 10.273 0 0 1 4.284-8.37c2.593-1.842 5.938-2.762 10.034-2.762 3.494 0 6.726.573 9.695 1.719v6.764c-2.856-1.823-5.571-2.734-8.145-2.734-1.315 0-2.48.31-3.495.93-1.015.62-1.522 1.55-1.522 2.79 0 .339.056.667.169.987.113.3.235.563.367.789.15.225.366.46.648.705.3.244.545.441.733.591.206.151.507.329.901.536l.902.451c.188.075.498.206.93.394.451.169.733.282.846.339 1.372.601 2.32 1.024 2.846 1.268.527.244 1.278.657 2.255 1.24.996.564 1.851 1.165 2.565 1.804 1.447 1.259 2.518 2.583 3.213 3.974.714 1.371 1.071 2.949 1.071 4.734 0 1.898-.395 3.655-1.184 5.271-.77 1.616-1.916 2.978-3.438 4.086-1.579 1.146-3.27 1.936-5.073 2.368-1.804.432-3.852.648-6.144.648a30.84 30.84 0 0 1-11.189-2.086Zm30.564 0-1.916-8.314c1.653 1.353 3.579 2.443 5.777 3.27 2.199.826 4.322 1.24 6.37 1.24.977 0 1.898-.104 2.762-.31a5.261 5.261 0 0 0 2.311-1.297c.695-.657 1.043-1.494 1.043-2.508 0-.94-.329-1.785-.987-2.537-.639-.77-1.475-1.428-2.508-1.973a50.417 50.417 0 0 0-3.438-1.634 50.739 50.739 0 0 1-3.777-1.888 21.196 21.196 0 0 1-3.41-2.368c-1.034-.883-1.879-2.02-2.537-3.41-.639-1.391-.958-2.959-.958-4.707a10.264 10.264 0 0 1 4.284-8.37c2.593-1.842 5.937-2.762 10.033-2.762 3.495 0 6.727.573 9.695 1.719v6.764c-2.856-1.823-5.571-2.734-8.145-2.734-1.315 0-2.48.31-3.494.93-1.015.62-1.522 1.55-1.522 2.79 0 .339.056.667.169.987.112.3.235.563.366.789.15.225.367.46.648.705.301.244.545.441.733.591.207.151.507.329.902.536l.902.451c.188.075.498.206.93.394.451.169.733.282.845.339a170.34 170.34 0 0 1 2.847 1.268c.526.244 1.278.657 2.255 1.24.995.564 1.85 1.165 2.564 1.804 1.447 1.259 2.518 2.583 3.213 3.974.714 1.371 1.071 2.949 1.071 4.734 0 1.898-.394 3.655-1.183 5.271-.771 1.616-1.917 2.978-3.439 4.086-1.578 1.146-3.269 1.936-5.073 2.368-1.804.432-3.852.648-6.144.648-3.852 0-7.581-.695-11.189-2.086Zm52.041-10.174h-11.443l-1.381 3.946c-.695 2.029-1.043 3.41-1.043 4.143 0 .507.122.977.367 1.409.244.432.46.742.648.93.188.169.545.47 1.071.902V153h-11.837v-.169c1.033-.94 1.813-1.879 2.339-2.818.526-.94 1.08-2.218 1.663-3.833l7.948-23.026c.056-.188.206-.63.451-1.325.244-.714.441-1.353.591-1.916.151-.564.226-1.024.226-1.381 0-1.259-.733-2.368-2.198-3.326v-.197h14.148l10.907 29.733c.056.169.188.545.394 1.128.226.582.357.939.395 1.071.056.112.178.394.366.845.188.451.32.742.395.874.094.113.235.357.423.733.206.357.385.629.535.817.169.188.385.441.648.761.263.319.536.629.818.93l.986.93V153h-17.417v-.169c.808-.526 1.399-1.033 1.775-1.522.395-.488.592-1.155.592-2.001 0-.639-.15-1.372-.451-2.198l-1.916-5.609Zm-1.917-5.355-3.974-11.358h-.056l-3.805 11.358h7.835Z"/>
  </g>
  <defs>
    <clipPath id="a">
      <use xlink:href="#b"/>
    </clipPath>
  </defs>
</svg>
