<svg xmlns="http://www.w3.org/2000/svg" xmlns:xlink="http://www.w3.org/1999/xlink" width="348" height="195" fill="none" viewBox="0 0 348 195">
  <defs>
    <path id="b" fill="#fff" d="M0 0h348v195H0z"/>
  </defs>
  <g clip-path="url(#a)">
    <use xlink:href="#b"/>
    <path fill="#FFC905" d="M0 137.667v-92.57h15.32v62.098l23.436-45.481H49.66l23.202 45.015V45.096H87.48v92.571H72.863l-29.01-56.563-29.001 56.563H0Z"/>
    <path fill="#FFC905" d="m43.74 111.354-10.09 18.47h20.18l-10.09-18.47Z"/>
    <path fill="#000" fill-rule="evenodd" d="M151.271 79.364a12.544 12.544 0 0 0 5.086 5.06l.061-.03a16.828 16.828 0 0 0 15.156 0 12.566 12.566 0 0 0 5.086-5.06 15.683 15.683 0 0 0 1.79-7.621V60.58a15.68 15.68 0 0 0-1.79-7.62 12.566 12.566 0 0 0-5.086-5.06 16.834 16.834 0 0 0-15.156 0 12.544 12.544 0 0 0-5.086 5.06 15.572 15.572 0 0 0-1.801 7.62v11.133a15.57 15.57 0 0 0 1.74 7.65Zm18.605-3.826a5.814 5.814 0 0 1-2.401 2.45 7.773 7.773 0 0 1-7.07 0 5.896 5.896 0 0 1-2.309-2.44 7.726 7.726 0 0 1-.824-3.633V60.358a7.648 7.648 0 0 1 .824-3.623 5.852 5.852 0 0 1 2.36-2.43 7.772 7.772 0 0 1 7.07 0 5.778 5.778 0 0 1 2.35 2.43 7.55 7.55 0 0 1 .834 3.643v11.527a7.618 7.618 0 0 1-.834 3.633Z" clip-rule="evenodd"/>
    <path fill="#000" d="M141.607 46.462h-9.827l-7.537 22.72-7.538-22.72h-9.816v39.359h6.775V58.264l7.293 19.359h6.582l7.293-19.903v28.1h6.775V46.463Z"/>
    <path fill="#000" fill-rule="evenodd" d="M185.724 46.442h17.333a11.08 11.08 0 0 1 5.737 1.457 9.865 9.865 0 0 1 3.805 4.13 14.713 14.713 0 0 1 0 12.367 9.834 9.834 0 0 1-3.845 4.129 11.13 11.13 0 0 1-2.548 1.058l9.445 16.238h-9.034l-8.902-15.839h-4.535v15.839h-7.456V46.442Zm7.456 16.365v-9.25h9.277a3.605 3.605 0 0 1 2.034.566 3.683 3.683 0 0 1 1.343 1.62c.33.77.493 1.601.478 2.439.001.22-.012.441-.035.66l-.011.09a6.32 6.32 0 0 1-.16.824c-.079.294-.18.583-.302.865a3.666 3.666 0 0 1-1.343 1.619 3.554 3.554 0 0 1-2.035.567h-9.246Zm28.746 16.557a12.577 12.577 0 0 0 5.086 5.06 16.816 16.816 0 0 0 15.147 0 12.571 12.571 0 0 0 5.086-5.06 15.583 15.583 0 0 0 1.801-7.621V60.611a15.583 15.583 0 0 0-1.801-7.621 12.572 12.572 0 0 0-5.086-5.06 16.815 16.815 0 0 0-15.147 0 12.578 12.578 0 0 0-5.086 5.06 15.593 15.593 0 0 0-1.8 7.62v11.133a15.593 15.593 0 0 0 1.8 7.62Zm18.555-3.796a5.897 5.897 0 0 1-2.36 2.42h.051a7.778 7.778 0 0 1-7.121 0 5.81 5.81 0 0 1-2.36-2.44 7.594 7.594 0 0 1-.834-3.633V60.378a7.537 7.537 0 0 1 .794-3.623 5.77 5.77 0 0 1 2.349-2.43 7.771 7.771 0 0 1 7.121 0 5.854 5.854 0 0 1 2.36 2.43 7.647 7.647 0 0 1 .823 3.623v11.557a7.713 7.713 0 0 1-.823 3.633Z" clip-rule="evenodd"/>
    <path fill="#000" d="m277.7 53.121-16.275 25.554h16.814v7.146h-25.674v-6.66l16.275-25.554h-15.787v-7.145H277.7v6.66Z"/>
    <path fill="#000" fill-rule="evenodd" d="M284.933 79.364a12.504 12.504 0 0 0 5.086 5.06v-.03a16.815 16.815 0 0 0 15.146 0 12.567 12.567 0 0 0 5.086-5.06 15.588 15.588 0 0 0 1.791-7.591V60.611a15.59 15.59 0 0 0-1.791-7.621 12.566 12.566 0 0 0-5.086-5.06 16.812 16.812 0 0 0-15.146 0 12.505 12.505 0 0 0-5.086 5.06 15.594 15.594 0 0 0-1.801 7.62v11.133a15.594 15.594 0 0 0 1.801 7.62Zm18.513-3.796a5.804 5.804 0 0 1-2.35 2.42 7.77 7.77 0 0 1-7.039 0 5.895 5.895 0 0 1-2.309-2.44 7.725 7.725 0 0 1-.824-3.633V60.378a7.662 7.662 0 0 1 .743-3.623 5.854 5.854 0 0 1 2.36-2.43 7.769 7.769 0 0 1 7.069 0 5.767 5.767 0 0 1 2.35 2.43 7.53 7.53 0 0 1 .834 3.623v11.557a7.594 7.594 0 0 1-.834 3.633Z" clip-rule="evenodd"/>
    <path fill="#000" d="M315.846 46.462h7.629l8.402 26.253 8.413-26.253h7.67l-13.123 39.359h-5.829l-13.162-39.359Zm-180.831 78.727v-7.681h-13.702v7.145h5.992v.647a7.958 7.958 0 0 1-.814 3.704 5.602 5.602 0 0 1-2.33 2.399 7.257 7.257 0 0 1-3.519.82 8.185 8.185 0 0 1-3.591-.749 5.654 5.654 0 0 1-2.4-2.166 6.23 6.23 0 0 1-.845-3.249v-11.567a7.884 7.884 0 0 1 .834-3.674 5.847 5.847 0 0 1 2.34-2.469 6.884 6.884 0 0 1 3.489-.962 7.235 7.235 0 0 1 2.624.476 6.158 6.158 0 0 1 2.198 1.376 5.226 5.226 0 0 1 1.353 2.156h8.056a15.019 15.019 0 0 0-2.706-6.153 13.638 13.638 0 0 0-4.994-4.049 14.838 14.838 0 0 0-6.521-1.447 15.173 15.173 0 0 0-7.568 1.832 12.591 12.591 0 0 0-5.086 5.151 16.139 16.139 0 0 0-1.77 7.692v11.638a14.292 14.292 0 0 0 1.811 7.277 12.288 12.288 0 0 0 5.086 4.858 16.347 16.347 0 0 0 7.639 1.72 15.155 15.155 0 0 0 7.558-1.832 12.561 12.561 0 0 0 5.086-5.161 16.194 16.194 0 0 0 1.78-7.732Z"/>
    <path fill="#000" fill-rule="evenodd" d="M142.41 100.131h17.293c2.01-.043 3.994.46 5.737 1.457a9.807 9.807 0 0 1 3.835 4.129 14.715 14.715 0 0 1 0 12.367 9.833 9.833 0 0 1-3.845 4.13 11.08 11.08 0 0 1-2.552 1.059l9.459 16.236h-9.033l-8.919-15.838h-4.519v15.838h-7.456v-39.378Zm7.456 16.395v-9.25h9.257a3.593 3.593 0 0 1 2.034.567 3.65 3.65 0 0 1 1.343 1.619c.33.77.493 1.601.479 2.439a6.292 6.292 0 0 1-.499 2.439 3.754 3.754 0 0 1-1.353 1.619 3.554 3.554 0 0 1-2.035.567h-9.226Zm28.696 16.526a12.52 12.52 0 0 0 5.086 5.061 16.817 16.817 0 0 0 15.147 0 12.52 12.52 0 0 0 5.086-5.061 15.578 15.578 0 0 0 1.8-7.62v-11.133a15.578 15.578 0 0 0-1.8-7.62 12.572 12.572 0 0 0-5.086-5.06 16.809 16.809 0 0 0-15.147 0 12.572 12.572 0 0 0-5.086 5.06 15.575 15.575 0 0 0-1.79 7.62v11.133a15.575 15.575 0 0 0 1.79 7.62Zm18.554-3.845a5.885 5.885 0 0 1-2.36 2.418v-.02a7.771 7.771 0 0 1-7.12 0 5.813 5.813 0 0 1-2.35-2.418 7.61 7.61 0 0 1-.834-3.634v-11.486a7.545 7.545 0 0 1 .834-3.624 5.773 5.773 0 0 1 2.35-2.428 7.771 7.771 0 0 1 7.12 0 5.843 5.843 0 0 1 2.36 2.428 7.651 7.651 0 0 1 .824 3.624v11.506a7.718 7.718 0 0 1-.824 3.634Z" clip-rule="evenodd"/>
    <path fill="#000" d="M218.539 138.194a11.356 11.356 0 0 1-4.924-5.061 17.122 17.122 0 0 1-1.688-7.914v-25.068h7.456v25.301a7.183 7.183 0 0 0 1.821 5.253 6.827 6.827 0 0 0 2.349 1.454c.875.32 1.807.459 2.737.408a6.968 6.968 0 0 0 5.188-1.862 7.189 7.189 0 0 0 1.831-5.253v-25.301h7.456v25.119a17.076 17.076 0 0 1-1.699 7.914 11.523 11.523 0 0 1-4.954 5.06 18.59 18.59 0 0 1-15.624 0l.051-.05Z"/>
    <path fill="#000" fill-rule="evenodd" d="M248.435 100.151v39.358h7.456v-15.271h8.403a13.73 13.73 0 0 0 6.51-1.488 10.655 10.655 0 0 0 4.374-4.2 13.738 13.738 0 0 0 0-12.661 10.721 10.721 0 0 0-4.374-4.23 13.604 13.604 0 0 0-6.51-1.508h-15.859Zm7.456 7.186v9.756h8.586a4.519 4.519 0 0 0 2.349-.608 4.048 4.048 0 0 0 1.587-1.72 5.375 5.375 0 0 0 .58-2.54 5.813 5.813 0 0 0-.559-2.581 4.15 4.15 0 0 0-1.577-1.731 4.478 4.478 0 0 0-2.38-.576h-8.586Z" clip-rule="evenodd"/>
  </g>
  <defs>
    <clipPath id="a">
      <use xlink:href="#b"/>
    </clipPath>
  </defs>
</svg>
