<svg xmlns="http://www.w3.org/2000/svg" xmlns:xlink="http://www.w3.org/1999/xlink" width="346" height="195" fill="none" viewBox="0 0 346 195">
  <defs>
    <path id="b" fill="#fff" d="M0 0h346v195H0z"/>
  </defs>
  <g clip-path="url(#a)">
    <use xlink:href="#b"/>
    <path fill="#000" fill-rule="evenodd" d="M97.751 111.101c4.944-1.012 8.169-3.967 9.257-8.825.712-3.208.967-13.55.834-15.393-.702-8.643-4.679-12.853-13.224-13.551a54.306 54.306 0 0 0-10.853.324c-6.094.718-9.511 3.876-10.773 9.827a44.88 44.88 0 0 0 0 17.923c1.069 5.526 4.496 8.784 10.111 9.797a38.76 38.76 0 0 0 14.648-.102Zm.936-29.066v20.94l-17.12-.021V82.036h17.12Z" clip-rule="evenodd"/>
    <path fill="#000" d="M273.252 110.646V74.263h9.155v22.953c.306-.491.555-.868.77-1.193.227-.344.415-.63.593-.932 3.845-6.477 7.71-12.934 11.484-19.452a2.66 2.66 0 0 1 1.116-1.213 2.679 2.679 0 0 1 1.621-.325c1.959.06 3.918.041 5.935.02l1.151-.01.693-.005a200.7 200.7 0 0 1 1.304-.005v36.434h-9.155V88.3l-.345-.101a3987.52 3987.52 0 0 0-6.978 11.75c-1.872 3.147-3.683 6.325-5.636 9.412a2.8 2.8 0 0 1-1.943 1.224c-2.315.097-4.647.084-7.093.071a464.47 464.47 0 0 0-2.672-.01Z"/>
    <path fill="#000" fill-rule="evenodd" d="M320.807 74.577a7.269 7.269 0 0 0-4.05 1.444 7.207 7.207 0 0 0-2.511 3.474c-1.72 4.271-1.587 8.694-.6 13.076a8.146 8.146 0 0 0 2.075 4.084 8.212 8.212 0 0 0 3.957 2.332l-6.765 11.679h9.918l6.307-10.829h7.507v10.657h9.348V74.486c-2.385 0-4.761-.013-7.131-.026h-.008c-6.046-.032-12.049-.065-18.047.117Zm15.685 16.476h-14.17v-8.299h14.17v8.299Z" clip-rule="evenodd"/>
    <path fill="#000" d="M9.365 110.565H.017V74.253h9.216v13.44h14.78v-13.42h9.318v36.201h-9.155V96.649H9.366v13.916Z"/>
    <path fill="#000" fill-rule="evenodd" d="M244.149 110.535v-9.848l2.36-.02c3.499 0 7.09.101 10.62 0 5.91-.182 9.409-2.894 10.274-8.46a32.626 32.626 0 0 0 0-9.382c-.763-5.384-3.561-8.137-9.053-8.42-5.759-.295-11.535-.257-17.307-.219l-3.151.02-1.057.004-1.658.002c-.112 0-.223.162-.366.264v36.059h9.338Zm.092-27.76h13.793l-.01 9.27h-13.783v-9.27Z" clip-rule="evenodd"/>
    <path fill="#000" d="M163.219 74.233h28.035v8.41H172.72v5.89h14.862v7.59H172.71v5.84h18.544v8.541h-28.035V74.233Zm-123.409.01v36.261h28.116v-8.511H49.373v-5.89h14.912v-7.54H49.423v-5.94h18.483v-8.38H39.81Zm168.411 8.481h-11.606v-8.44h32.551v8.359h-11.403v27.871h-9.542v-27.79Zm-51.512 27.78h-8.717V84.819l-7.691 16.972h-9.816l-6.856-16.972v25.685h-9.562v-36.23h13.316l8.27 18.904 8.005-18.905h13.051v36.231Z"/>
  </g>
  <defs>
    <clipPath id="a">
      <use xlink:href="#b"/>
    </clipPath>
  </defs>
</svg>
