<svg xmlns="http://www.w3.org/2000/svg" xmlns:xlink="http://www.w3.org/1999/xlink" width="348" height="195" fill="none" viewBox="0 0 348 195">
  <defs>
    <path id="b" fill="#fff" d="M0 0h348v195H0z"/>
  </defs>
  <g clip-path="url(#a)">
    <use xlink:href="#b"/>
    <path fill="#000" fill-rule="evenodd" d="M100.125 59.295a33.497 33.497 0 0 0-18.54 5.6A33.243 33.243 0 0 0 69.298 79.8a33.048 33.048 0 0 0-1.895 19.184 33.15 33.15 0 0 0 9.136 16.999 33.432 33.432 0 0 0 17.088 9.085 33.54 33.54 0 0 0 19.282-1.891 33.346 33.346 0 0 0 14.977-12.23 33.056 33.056 0 0 0 3.082-31.156 33.183 33.183 0 0 0-7.237-10.774A33.39 33.39 0 0 0 112.9 61.82a33.524 33.524 0 0 0-12.775-2.525Zm0 17.336c3.154 0 6.238.93 8.861 2.674a15.893 15.893 0 0 1 5.875 7.122 15.79 15.79 0 0 1 .907 9.169 15.837 15.837 0 0 1-4.365 8.125 15.978 15.978 0 0 1-8.167 4.343c-3.094.612-6.3.298-9.215-.903a15.93 15.93 0 0 1-7.158-5.845 15.81 15.81 0 0 1-2.688-8.816c0-4.209 1.68-8.245 4.671-11.22a15.991 15.991 0 0 1 11.279-4.649Z" clip-rule="evenodd"/>
    <path fill="#000" d="M63.312 61.005v16.85H40.007v46.15H23.315v-46.15H0v-16.85h63.312Zm119.278 0v25.392h-23.802V61.005h-16.693v42.243h40.495v20.757h16.937v-63H182.59Zm75.346 0v25.392h-29.703V61.005h-16.927v63h16.927v-20.757h29.703v20.757h16.682v-63h-16.682Z"/>
    <path fill="#000" fill-rule="evenodd" d="M290.752 69.12a33.586 33.586 0 0 1 23.629-9.825h.244a33.586 33.586 0 0 1 23.629 9.825A33.241 33.241 0 0 1 348 92.682a33.238 33.238 0 0 1-9.833 23.526 33.583 33.583 0 0 1-23.664 9.74 33.583 33.583 0 0 1-23.664-9.74 33.242 33.242 0 0 1-9.833-23.526 33.241 33.241 0 0 1 9.746-23.562Zm32.488 10.19a16.011 16.011 0 0 0-8.859-2.679 16.243 16.243 0 0 0-11.212 4.717 16.08 16.08 0 0 0-4.748 11.152c0 3.138.935 6.206 2.687 8.815a15.933 15.933 0 0 0 7.157 5.845 16.032 16.032 0 0 0 9.214.905 15.975 15.975 0 0 0 8.167-4.341 15.844 15.844 0 0 0 4.367-8.122 15.796 15.796 0 0 0-.903-9.168 15.893 15.893 0 0 0-5.87-7.124Z" clip-rule="evenodd"/>
  </g>
  <defs>
    <clipPath id="a">
      <use xlink:href="#b"/>
    </clipPath>
  </defs>
</svg>
